<?xml version="1.0" encoding="utf-8" standalone="no"?>
<!DOCTYPE svg PUBLIC "-//W3C//DTD SVG 1.1//EN"
  "http://www.w3.org/Graphics/SVG/1.1/DTD/svg11.dtd">
<!-- Created with matplotlib (http://matplotlib.org/) -->
<svg height="576pt" version="1.1" viewBox="0 0 864 576" width="864pt" xmlns="http://www.w3.org/2000/svg" xmlns:xlink="http://www.w3.org/1999/xlink">
 <defs>
  <style type="text/css">
*{stroke-linecap:butt;stroke-linejoin:round;}
  </style>
 </defs>
 <g id="figure_1">
  <g id="patch_1">
   <path d="M 0 576 
L 864 576 
L 864 0 
L 0 0 
z
" style="fill:#ffffff;"/>
  </g>
  <g id="axes_1">
   <g id="patch_2">
    <path d="M 108 504 
L 777.6 504 
L 777.6 69.12 
L 108 69.12 
z
" style="fill:#eaeaf2;"/>
   </g>
   <g id="matplotlib.axis_1">
    <g id="xtick_1">
     <g id="line2d_1">
      <path clip-path="url(#pbf0ed36622)" d="M 138.436364 504 
L 138.436364 69.12 
" style="fill:none;stroke:#ffffff;stroke-linecap:round;"/>
     </g>
     <g id="text_1">
      <!-- 0 -->
      <defs>
       <path d="M 4.15625 35.296875 
Q 4.15625 48 6.765625 55.734375 
Q 9.375 63.484375 14.515625 67.671875 
Q 19.671875 71.875 27.484375 71.875 
Q 33.25 71.875 37.59375 69.546875 
Q 41.9375 67.234375 44.765625 62.859375 
Q 47.609375 58.5 49.21875 52.21875 
Q 50.828125 45.953125 50.828125 35.296875 
Q 50.828125 22.703125 48.234375 14.96875 
Q 45.65625 7.234375 40.5 3 
Q 35.359375 -1.21875 27.484375 -1.21875 
Q 17.140625 -1.21875 11.234375 6.203125 
Q 4.15625 15.140625 4.15625 35.296875 
z
M 13.1875 35.296875 
Q 13.1875 17.671875 17.3125 11.828125 
Q 21.4375 6 27.484375 6 
Q 33.546875 6 37.671875 11.859375 
Q 41.796875 17.71875 41.796875 35.296875 
Q 41.796875 52.984375 37.671875 58.78125 
Q 33.546875 64.59375 27.390625 64.59375 
Q 21.34375 64.59375 17.71875 59.46875 
Q 13.1875 52.9375 13.1875 35.296875 
z
" id="ArialMT-30"/>
      </defs>
      <g style="fill:#262626;" transform="translate(135.377848 521.373594)scale(0.11 -0.11)">
       <use xlink:href="#ArialMT-30"/>
      </g>
     </g>
    </g>
    <g id="xtick_2">
     <g id="line2d_2">
      <path clip-path="url(#pbf0ed36622)" d="M 252.858783 504 
L 252.858783 69.12 
" style="fill:none;stroke:#ffffff;stroke-linecap:round;"/>
     </g>
     <g id="text_2">
      <!-- 50 -->
      <defs>
       <path d="M 4.15625 18.75 
L 13.375 19.53125 
Q 14.40625 12.796875 18.140625 9.390625 
Q 21.875 6 27.15625 6 
Q 33.5 6 37.890625 10.78125 
Q 42.28125 15.578125 42.28125 23.484375 
Q 42.28125 31 38.0625 35.34375 
Q 33.84375 39.703125 27 39.703125 
Q 22.75 39.703125 19.328125 37.765625 
Q 15.921875 35.84375 13.96875 32.765625 
L 5.71875 33.84375 
L 12.640625 70.609375 
L 48.25 70.609375 
L 48.25 62.203125 
L 19.671875 62.203125 
L 15.828125 42.96875 
Q 22.265625 47.46875 29.34375 47.46875 
Q 38.71875 47.46875 45.15625 40.96875 
Q 51.609375 34.46875 51.609375 24.265625 
Q 51.609375 14.546875 45.953125 7.46875 
Q 39.0625 -1.21875 27.15625 -1.21875 
Q 17.390625 -1.21875 11.203125 4.25 
Q 5.03125 9.71875 4.15625 18.75 
z
" id="ArialMT-35"/>
      </defs>
      <g style="fill:#262626;" transform="translate(246.741752 521.373594)scale(0.11 -0.11)">
       <use xlink:href="#ArialMT-35"/>
       <use x="55.615234" xlink:href="#ArialMT-30"/>
      </g>
     </g>
    </g>
    <g id="xtick_3">
     <g id="line2d_3">
      <path clip-path="url(#pbf0ed36622)" d="M 367.281203 504 
L 367.281203 69.12 
" style="fill:none;stroke:#ffffff;stroke-linecap:round;"/>
     </g>
     <g id="text_3">
      <!-- 100 -->
      <defs>
       <path d="M 37.25 0 
L 28.46875 0 
L 28.46875 56 
Q 25.296875 52.984375 20.140625 49.953125 
Q 14.984375 46.921875 10.890625 45.40625 
L 10.890625 53.90625 
Q 18.265625 57.375 23.78125 62.296875 
Q 29.296875 67.234375 31.59375 71.875 
L 37.25 71.875 
z
" id="ArialMT-31"/>
      </defs>
      <g style="fill:#262626;" transform="translate(358.105656 521.373594)scale(0.11 -0.11)">
       <use xlink:href="#ArialMT-31"/>
       <use x="55.615234" xlink:href="#ArialMT-30"/>
       <use x="111.230469" xlink:href="#ArialMT-30"/>
      </g>
     </g>
    </g>
    <g id="xtick_4">
     <g id="line2d_4">
      <path clip-path="url(#pbf0ed36622)" d="M 481.703623 504 
L 481.703623 69.12 
" style="fill:none;stroke:#ffffff;stroke-linecap:round;"/>
     </g>
     <g id="text_4">
      <!-- 150 -->
      <g style="fill:#262626;" transform="translate(472.528076 521.373594)scale(0.11 -0.11)">
       <use xlink:href="#ArialMT-31"/>
       <use x="55.615234" xlink:href="#ArialMT-35"/>
       <use x="111.230469" xlink:href="#ArialMT-30"/>
      </g>
     </g>
    </g>
    <g id="xtick_5">
     <g id="line2d_5">
      <path clip-path="url(#pbf0ed36622)" d="M 596.126042 504 
L 596.126042 69.12 
" style="fill:none;stroke:#ffffff;stroke-linecap:round;"/>
     </g>
     <g id="text_5">
      <!-- 200 -->
      <defs>
       <path d="M 50.34375 8.453125 
L 50.34375 0 
L 3.03125 0 
Q 2.9375 3.171875 4.046875 6.109375 
Q 5.859375 10.9375 9.828125 15.625 
Q 13.8125 20.3125 21.34375 26.46875 
Q 33.015625 36.03125 37.109375 41.625 
Q 41.21875 47.21875 41.21875 52.203125 
Q 41.21875 57.421875 37.46875 61 
Q 33.734375 64.59375 27.734375 64.59375 
Q 21.390625 64.59375 17.578125 60.78125 
Q 13.765625 56.984375 13.71875 50.25 
L 4.6875 51.171875 
Q 5.609375 61.28125 11.65625 66.578125 
Q 17.71875 71.875 27.9375 71.875 
Q 38.234375 71.875 44.234375 66.15625 
Q 50.25 60.453125 50.25 52 
Q 50.25 47.703125 48.484375 43.546875 
Q 46.734375 39.40625 42.65625 34.8125 
Q 38.578125 30.21875 29.109375 22.21875 
Q 21.1875 15.578125 18.9375 13.203125 
Q 16.703125 10.84375 15.234375 8.453125 
z
" id="ArialMT-32"/>
      </defs>
      <g style="fill:#262626;" transform="translate(586.950496 521.373594)scale(0.11 -0.11)">
       <use xlink:href="#ArialMT-32"/>
       <use x="55.615234" xlink:href="#ArialMT-30"/>
       <use x="111.230469" xlink:href="#ArialMT-30"/>
      </g>
     </g>
    </g>
    <g id="xtick_6">
     <g id="line2d_6">
      <path clip-path="url(#pbf0ed36622)" d="M 710.548462 504 
L 710.548462 69.12 
" style="fill:none;stroke:#ffffff;stroke-linecap:round;"/>
     </g>
     <g id="text_6">
      <!-- 250 -->
      <g style="fill:#262626;" transform="translate(701.372915 521.373594)scale(0.11 -0.11)">
       <use xlink:href="#ArialMT-32"/>
       <use x="55.615234" xlink:href="#ArialMT-35"/>
       <use x="111.230469" xlink:href="#ArialMT-30"/>
      </g>
     </g>
    </g>
   </g>
   <g id="matplotlib.axis_2">
    <g id="ytick_1">
     <g id="line2d_7">
      <path clip-path="url(#pbf0ed36622)" d="M 108 434.582899 
L 777.6 434.582899 
" style="fill:none;stroke:#ffffff;stroke-linecap:round;"/>
     </g>
     <g id="text_7">
      <!-- −2 -->
      <defs>
       <path d="M 52.828125 31.203125 
L 5.5625 31.203125 
L 5.5625 39.40625 
L 52.828125 39.40625 
z
" id="ArialMT-2212"/>
      </defs>
      <g style="fill:#262626;" transform="translate(85.958281 438.519696)scale(0.11 -0.11)">
       <use xlink:href="#ArialMT-2212"/>
       <use x="58.398438" xlink:href="#ArialMT-32"/>
      </g>
     </g>
    </g>
    <g id="ytick_2">
     <g id="line2d_8">
      <path clip-path="url(#pbf0ed36622)" d="M 108 349.459291 
L 777.6 349.459291 
" style="fill:none;stroke:#ffffff;stroke-linecap:round;"/>
     </g>
     <g id="text_8">
      <!-- −1 -->
      <g style="fill:#262626;" transform="translate(85.958281 353.396088)scale(0.11 -0.11)">
       <use xlink:href="#ArialMT-2212"/>
       <use x="58.398438" xlink:href="#ArialMT-31"/>
      </g>
     </g>
    </g>
    <g id="ytick_3">
     <g id="line2d_9">
      <path clip-path="url(#pbf0ed36622)" d="M 108 264.335684 
L 777.6 264.335684 
" style="fill:none;stroke:#ffffff;stroke-linecap:round;"/>
     </g>
     <g id="text_9">
      <!-- 0 -->
      <g style="fill:#262626;" transform="translate(92.382969 268.27248)scale(0.11 -0.11)">
       <use xlink:href="#ArialMT-30"/>
      </g>
     </g>
    </g>
    <g id="ytick_4">
     <g id="line2d_10">
      <path clip-path="url(#pbf0ed36622)" d="M 108 179.212076 
L 777.6 179.212076 
" style="fill:none;stroke:#ffffff;stroke-linecap:round;"/>
     </g>
     <g id="text_10">
      <!-- 1 -->
      <g style="fill:#262626;" transform="translate(92.382969 183.148873)scale(0.11 -0.11)">
       <use xlink:href="#ArialMT-31"/>
      </g>
     </g>
    </g>
    <g id="ytick_5">
     <g id="line2d_11">
      <path clip-path="url(#pbf0ed36622)" d="M 108 94.088468 
L 777.6 94.088468 
" style="fill:none;stroke:#ffffff;stroke-linecap:round;"/>
     </g>
     <g id="text_11">
      <!-- 2 -->
      <g style="fill:#262626;" transform="translate(92.382969 98.025265)scale(0.11 -0.11)">
       <use xlink:href="#ArialMT-32"/>
      </g>
     </g>
    </g>
   </g>
   <g id="line2d_12">
    <defs>
     <path d="M 0 3 
C 0.795609 3 1.55874 2.683901 2.12132 2.12132 
C 2.683901 1.55874 3 0.795609 3 0 
C 3 -0.795609 2.683901 -1.55874 2.12132 -2.12132 
C 1.55874 -2.683901 0.795609 -3 0 -3 
C -0.795609 -3 -1.55874 -2.683901 -2.12132 -2.12132 
C -2.683901 -1.55874 -3 -0.795609 -3 0 
C -3 0.795609 -2.683901 1.55874 -2.12132 2.12132 
C -1.55874 2.683901 -0.795609 3 0 3 
z
" id="ma61f1267ca" style="stroke:#4c72b0;"/>
    </defs>
    <g clip-path="url(#pbf0ed36622)">
     <use style="fill:#4c72b0;stroke:#4c72b0;" x="138.436364" xlink:href="#ma61f1267ca" y="245.280571"/>
     <use style="fill:#4c72b0;stroke:#4c72b0;" x="140.724812" xlink:href="#ma61f1267ca" y="244.45553"/>
     <use style="fill:#4c72b0;stroke:#4c72b0;" x="143.01326" xlink:href="#ma61f1267ca" y="245.893946"/>
     <use style="fill:#4c72b0;stroke:#4c72b0;" x="145.301709" xlink:href="#ma61f1267ca" y="198.728777"/>
     <use style="fill:#4c72b0;stroke:#4c72b0;" x="147.590157" xlink:href="#ma61f1267ca" y="305.896301"/>
     <use style="fill:#4c72b0;stroke:#4c72b0;" x="149.878606" xlink:href="#ma61f1267ca" y="218.57116"/>
     <use style="fill:#4c72b0;stroke:#4c72b0;" x="152.167054" xlink:href="#ma61f1267ca" y="228.767059"/>
     <use style="fill:#4c72b0;stroke:#4c72b0;" x="154.455502" xlink:href="#ma61f1267ca" y="218.319956"/>
     <use style="fill:#4c72b0;stroke:#4c72b0;" x="156.743951" xlink:href="#ma61f1267ca" y="239.819296"/>
     <use style="fill:#4c72b0;stroke:#4c72b0;" x="159.032399" xlink:href="#ma61f1267ca" y="213.59346"/>
     <use style="fill:#4c72b0;stroke:#4c72b0;" x="161.320848" xlink:href="#ma61f1267ca" y="90.268453"/>
     <use style="fill:#4c72b0;stroke:#4c72b0;" x="163.609296" xlink:href="#ma61f1267ca" y="236.573435"/>
     <use style="fill:#4c72b0;stroke:#4c72b0;" x="165.897744" xlink:href="#ma61f1267ca" y="88.887273"/>
     <use style="fill:#4c72b0;stroke:#4c72b0;" x="168.186193" xlink:href="#ma61f1267ca" y="237.507428"/>
     <use style="fill:#4c72b0;stroke:#4c72b0;" x="170.474641" xlink:href="#ma61f1267ca" y="273.865682"/>
     <use style="fill:#4c72b0;stroke:#4c72b0;" x="172.76309" xlink:href="#ma61f1267ca" y="216.520065"/>
     <use style="fill:#4c72b0;stroke:#4c72b0;" x="175.051538" xlink:href="#ma61f1267ca" y="270.772217"/>
     <use style="fill:#4c72b0;stroke:#4c72b0;" x="177.339986" xlink:href="#ma61f1267ca" y="197.893892"/>
     <use style="fill:#4c72b0;stroke:#4c72b0;" x="179.628435" xlink:href="#ma61f1267ca" y="267.045544"/>
     <use style="fill:#4c72b0;stroke:#4c72b0;" x="181.916883" xlink:href="#ma61f1267ca" y="288.796742"/>
     <use style="fill:#4c72b0;stroke:#4c72b0;" x="184.205332" xlink:href="#ma61f1267ca" y="381.548399"/>
     <use style="fill:#4c72b0;stroke:#4c72b0;" x="186.49378" xlink:href="#ma61f1267ca" y="295.928509"/>
     <use style="fill:#4c72b0;stroke:#4c72b0;" x="188.782228" xlink:href="#ma61f1267ca" y="474.7044"/>
     <use style="fill:#4c72b0;stroke:#4c72b0;" x="191.070677" xlink:href="#ma61f1267ca" y="263.000141"/>
     <use style="fill:#4c72b0;stroke:#4c72b0;" x="193.359125" xlink:href="#ma61f1267ca" y="223.479085"/>
     <use style="fill:#4c72b0;stroke:#4c72b0;" x="195.647573" xlink:href="#ma61f1267ca" y="218.506578"/>
     <use style="fill:#4c72b0;stroke:#4c72b0;" x="197.936022" xlink:href="#ma61f1267ca" y="130.072374"/>
     <use style="fill:#4c72b0;stroke:#4c72b0;" x="200.22447" xlink:href="#ma61f1267ca" y="286.210905"/>
     <use style="fill:#4c72b0;stroke:#4c72b0;" x="202.512919" xlink:href="#ma61f1267ca" y="155.126484"/>
     <use style="fill:#4c72b0;stroke:#4c72b0;" x="204.801367" xlink:href="#ma61f1267ca" y="234.96447"/>
     <use style="fill:#4c72b0;stroke:#4c72b0;" x="207.089815" xlink:href="#ma61f1267ca" y="220.349542"/>
     <use style="fill:#4c72b0;stroke:#4c72b0;" x="209.378264" xlink:href="#ma61f1267ca" y="484.232727"/>
     <use style="fill:#4c72b0;stroke:#4c72b0;" x="211.666712" xlink:href="#ma61f1267ca" y="314.626817"/>
     <use style="fill:#4c72b0;stroke:#4c72b0;" x="213.955161" xlink:href="#ma61f1267ca" y="312.968971"/>
     <use style="fill:#4c72b0;stroke:#4c72b0;" x="216.243609" xlink:href="#ma61f1267ca" y="320.262964"/>
     <use style="fill:#4c72b0;stroke:#4c72b0;" x="218.532057" xlink:href="#ma61f1267ca" y="199.36755"/>
     <use style="fill:#4c72b0;stroke:#4c72b0;" x="220.820506" xlink:href="#ma61f1267ca" y="310.006819"/>
     <use style="fill:#4c72b0;stroke:#4c72b0;" x="223.108954" xlink:href="#ma61f1267ca" y="307.582556"/>
     <use style="fill:#4c72b0;stroke:#4c72b0;" x="225.397403" xlink:href="#ma61f1267ca" y="297.363625"/>
     <use style="fill:#4c72b0;stroke:#4c72b0;" x="227.685851" xlink:href="#ma61f1267ca" y="306.264338"/>
     <use style="fill:#4c72b0;stroke:#4c72b0;" x="229.974299" xlink:href="#ma61f1267ca" y="252.651167"/>
     <use style="fill:#4c72b0;stroke:#4c72b0;" x="232.262748" xlink:href="#ma61f1267ca" y="285.176867"/>
     <use style="fill:#4c72b0;stroke:#4c72b0;" x="234.551196" xlink:href="#ma61f1267ca" y="231.352191"/>
     <use style="fill:#4c72b0;stroke:#4c72b0;" x="236.839645" xlink:href="#ma61f1267ca" y="249.421645"/>
     <use style="fill:#4c72b0;stroke:#4c72b0;" x="239.128093" xlink:href="#ma61f1267ca" y="244.356087"/>
     <use style="fill:#4c72b0;stroke:#4c72b0;" x="241.416541" xlink:href="#ma61f1267ca" y="136.346743"/>
     <use style="fill:#4c72b0;stroke:#4c72b0;" x="243.70499" xlink:href="#ma61f1267ca" y="275.713467"/>
     <use style="fill:#4c72b0;stroke:#4c72b0;" x="245.993438" xlink:href="#ma61f1267ca" y="304.427267"/>
     <use style="fill:#4c72b0;stroke:#4c72b0;" x="248.281887" xlink:href="#ma61f1267ca" y="204.018062"/>
     <use style="fill:#4c72b0;stroke:#4c72b0;" x="250.570335" xlink:href="#ma61f1267ca" y="307.571965"/>
     <use style="fill:#4c72b0;stroke:#4c72b0;" x="252.858783" xlink:href="#ma61f1267ca" y="267.904947"/>
     <use style="fill:#4c72b0;stroke:#4c72b0;" x="255.147232" xlink:href="#ma61f1267ca" y="294.848663"/>
     <use style="fill:#4c72b0;stroke:#4c72b0;" x="257.43568" xlink:href="#ma61f1267ca" y="306.210597"/>
     <use style="fill:#4c72b0;stroke:#4c72b0;" x="259.724129" xlink:href="#ma61f1267ca" y="319.802661"/>
     <use style="fill:#4c72b0;stroke:#4c72b0;" x="262.012577" xlink:href="#ma61f1267ca" y="304.936668"/>
     <use style="fill:#4c72b0;stroke:#4c72b0;" x="264.301025" xlink:href="#ma61f1267ca" y="279.950967"/>
     <use style="fill:#4c72b0;stroke:#4c72b0;" x="266.589474" xlink:href="#ma61f1267ca" y="323.112262"/>
     <use style="fill:#4c72b0;stroke:#4c72b0;" x="268.877922" xlink:href="#ma61f1267ca" y="290.306647"/>
     <use style="fill:#4c72b0;stroke:#4c72b0;" x="271.16637" xlink:href="#ma61f1267ca" y="272.277684"/>
     <use style="fill:#4c72b0;stroke:#4c72b0;" x="273.454819" xlink:href="#ma61f1267ca" y="270.45707"/>
     <use style="fill:#4c72b0;stroke:#4c72b0;" x="275.743267" xlink:href="#ma61f1267ca" y="283.422247"/>
     <use style="fill:#4c72b0;stroke:#4c72b0;" x="278.031716" xlink:href="#ma61f1267ca" y="287.803288"/>
     <use style="fill:#4c72b0;stroke:#4c72b0;" x="280.320164" xlink:href="#ma61f1267ca" y="241.695419"/>
     <use style="fill:#4c72b0;stroke:#4c72b0;" x="282.608612" xlink:href="#ma61f1267ca" y="301.677792"/>
     <use style="fill:#4c72b0;stroke:#4c72b0;" x="284.897061" xlink:href="#ma61f1267ca" y="310.985916"/>
     <use style="fill:#4c72b0;stroke:#4c72b0;" x="287.185509" xlink:href="#ma61f1267ca" y="309.378395"/>
     <use style="fill:#4c72b0;stroke:#4c72b0;" x="289.473958" xlink:href="#ma61f1267ca" y="248.067708"/>
     <use style="fill:#4c72b0;stroke:#4c72b0;" x="291.762406" xlink:href="#ma61f1267ca" y="292.468238"/>
     <use style="fill:#4c72b0;stroke:#4c72b0;" x="294.050854" xlink:href="#ma61f1267ca" y="290.350667"/>
     <use style="fill:#4c72b0;stroke:#4c72b0;" x="296.339303" xlink:href="#ma61f1267ca" y="279.230985"/>
     <use style="fill:#4c72b0;stroke:#4c72b0;" x="298.627751" xlink:href="#ma61f1267ca" y="283.498378"/>
     <use style="fill:#4c72b0;stroke:#4c72b0;" x="300.9162" xlink:href="#ma61f1267ca" y="301.673559"/>
     <use style="fill:#4c72b0;stroke:#4c72b0;" x="303.204648" xlink:href="#ma61f1267ca" y="267.513845"/>
     <use style="fill:#4c72b0;stroke:#4c72b0;" x="305.493096" xlink:href="#ma61f1267ca" y="283.812132"/>
     <use style="fill:#4c72b0;stroke:#4c72b0;" x="307.781545" xlink:href="#ma61f1267ca" y="262.291471"/>
     <use style="fill:#4c72b0;stroke:#4c72b0;" x="310.069993" xlink:href="#ma61f1267ca" y="277.327877"/>
     <use style="fill:#4c72b0;stroke:#4c72b0;" x="312.358442" xlink:href="#ma61f1267ca" y="272.941754"/>
     <use style="fill:#4c72b0;stroke:#4c72b0;" x="314.64689" xlink:href="#ma61f1267ca" y="236.726059"/>
     <use style="fill:#4c72b0;stroke:#4c72b0;" x="316.935338" xlink:href="#ma61f1267ca" y="291.283248"/>
     <use style="fill:#4c72b0;stroke:#4c72b0;" x="319.223787" xlink:href="#ma61f1267ca" y="301.989242"/>
     <use style="fill:#4c72b0;stroke:#4c72b0;" x="321.512235" xlink:href="#ma61f1267ca" y="247.088122"/>
     <use style="fill:#4c72b0;stroke:#4c72b0;" x="323.800684" xlink:href="#ma61f1267ca" y="296.739076"/>
     <use style="fill:#4c72b0;stroke:#4c72b0;" x="326.089132" xlink:href="#ma61f1267ca" y="299.782567"/>
     <use style="fill:#4c72b0;stroke:#4c72b0;" x="328.37758" xlink:href="#ma61f1267ca" y="290.936396"/>
     <use style="fill:#4c72b0;stroke:#4c72b0;" x="330.666029" xlink:href="#ma61f1267ca" y="224.583105"/>
     <use style="fill:#4c72b0;stroke:#4c72b0;" x="332.954477" xlink:href="#ma61f1267ca" y="223.690373"/>
     <use style="fill:#4c72b0;stroke:#4c72b0;" x="335.242925" xlink:href="#ma61f1267ca" y="280.717168"/>
     <use style="fill:#4c72b0;stroke:#4c72b0;" x="337.531374" xlink:href="#ma61f1267ca" y="324.832288"/>
     <use style="fill:#4c72b0;stroke:#4c72b0;" x="339.819822" xlink:href="#ma61f1267ca" y="245.118628"/>
     <use style="fill:#4c72b0;stroke:#4c72b0;" x="342.108271" xlink:href="#ma61f1267ca" y="320.610639"/>
     <use style="fill:#4c72b0;stroke:#4c72b0;" x="344.396719" xlink:href="#ma61f1267ca" y="332.731247"/>
     <use style="fill:#4c72b0;stroke:#4c72b0;" x="346.685167" xlink:href="#ma61f1267ca" y="191.658284"/>
     <use style="fill:#4c72b0;stroke:#4c72b0;" x="348.973616" xlink:href="#ma61f1267ca" y="245.963009"/>
     <use style="fill:#4c72b0;stroke:#4c72b0;" x="351.262064" xlink:href="#ma61f1267ca" y="305.667643"/>
     <use style="fill:#4c72b0;stroke:#4c72b0;" x="353.550513" xlink:href="#ma61f1267ca" y="297.210698"/>
     <use style="fill:#4c72b0;stroke:#4c72b0;" x="355.838961" xlink:href="#ma61f1267ca" y="234.279686"/>
     <use style="fill:#4c72b0;stroke:#4c72b0;" x="358.127409" xlink:href="#ma61f1267ca" y="138.921052"/>
     <use style="fill:#4c72b0;stroke:#4c72b0;" x="360.415858" xlink:href="#ma61f1267ca" y="244.328529"/>
     <use style="fill:#4c72b0;stroke:#4c72b0;" x="362.704306" xlink:href="#ma61f1267ca" y="259.657249"/>
     <use style="fill:#4c72b0;stroke:#4c72b0;" x="364.992755" xlink:href="#ma61f1267ca" y="266.325304"/>
     <use style="fill:#4c72b0;stroke:#4c72b0;" x="367.281203" xlink:href="#ma61f1267ca" y="220.008855"/>
     <use style="fill:#4c72b0;stroke:#4c72b0;" x="369.569651" xlink:href="#ma61f1267ca" y="261.442861"/>
     <use style="fill:#4c72b0;stroke:#4c72b0;" x="371.8581" xlink:href="#ma61f1267ca" y="272.527028"/>
     <use style="fill:#4c72b0;stroke:#4c72b0;" x="374.146548" xlink:href="#ma61f1267ca" y="270.605181"/>
     <use style="fill:#4c72b0;stroke:#4c72b0;" x="376.434997" xlink:href="#ma61f1267ca" y="285.019532"/>
     <use style="fill:#4c72b0;stroke:#4c72b0;" x="378.723445" xlink:href="#ma61f1267ca" y="276.654854"/>
     <use style="fill:#4c72b0;stroke:#4c72b0;" x="381.011893" xlink:href="#ma61f1267ca" y="305.492703"/>
     <use style="fill:#4c72b0;stroke:#4c72b0;" x="383.300342" xlink:href="#ma61f1267ca" y="268.524435"/>
     <use style="fill:#4c72b0;stroke:#4c72b0;" x="385.58879" xlink:href="#ma61f1267ca" y="298.579459"/>
     <use style="fill:#4c72b0;stroke:#4c72b0;" x="387.877239" xlink:href="#ma61f1267ca" y="289.865325"/>
     <use style="fill:#4c72b0;stroke:#4c72b0;" x="390.165687" xlink:href="#ma61f1267ca" y="277.626808"/>
     <use style="fill:#4c72b0;stroke:#4c72b0;" x="392.454135" xlink:href="#ma61f1267ca" y="164.260446"/>
     <use style="fill:#4c72b0;stroke:#4c72b0;" x="394.742584" xlink:href="#ma61f1267ca" y="250.131536"/>
     <use style="fill:#4c72b0;stroke:#4c72b0;" x="397.031032" xlink:href="#ma61f1267ca" y="187.251729"/>
     <use style="fill:#4c72b0;stroke:#4c72b0;" x="399.319481" xlink:href="#ma61f1267ca" y="240.304569"/>
     <use style="fill:#4c72b0;stroke:#4c72b0;" x="401.607929" xlink:href="#ma61f1267ca" y="216.895374"/>
     <use style="fill:#4c72b0;stroke:#4c72b0;" x="403.896377" xlink:href="#ma61f1267ca" y="235.428834"/>
     <use style="fill:#4c72b0;stroke:#4c72b0;" x="406.184826" xlink:href="#ma61f1267ca" y="278.988945"/>
     <use style="fill:#4c72b0;stroke:#4c72b0;" x="408.473274" xlink:href="#ma61f1267ca" y="257.367475"/>
     <use style="fill:#4c72b0;stroke:#4c72b0;" x="410.761722" xlink:href="#ma61f1267ca" y="248.150549"/>
     <use style="fill:#4c72b0;stroke:#4c72b0;" x="413.050171" xlink:href="#ma61f1267ca" y="244.104908"/>
     <use style="fill:#4c72b0;stroke:#4c72b0;" x="415.338619" xlink:href="#ma61f1267ca" y="267.631635"/>
     <use style="fill:#4c72b0;stroke:#4c72b0;" x="417.627068" xlink:href="#ma61f1267ca" y="261.003616"/>
     <use style="fill:#4c72b0;stroke:#4c72b0;" x="419.915516" xlink:href="#ma61f1267ca" y="240.343401"/>
     <use style="fill:#4c72b0;stroke:#4c72b0;" x="422.203964" xlink:href="#ma61f1267ca" y="283.972507"/>
     <use style="fill:#4c72b0;stroke:#4c72b0;" x="424.492413" xlink:href="#ma61f1267ca" y="284.194655"/>
     <use style="fill:#4c72b0;stroke:#4c72b0;" x="426.780861" xlink:href="#ma61f1267ca" y="285.85788"/>
     <use style="fill:#4c72b0;stroke:#4c72b0;" x="429.06931" xlink:href="#ma61f1267ca" y="273.560252"/>
     <use style="fill:#4c72b0;stroke:#4c72b0;" x="431.357758" xlink:href="#ma61f1267ca" y="294.099272"/>
     <use style="fill:#4c72b0;stroke:#4c72b0;" x="433.646206" xlink:href="#ma61f1267ca" y="313.582466"/>
     <use style="fill:#4c72b0;stroke:#4c72b0;" x="435.934655" xlink:href="#ma61f1267ca" y="256.568009"/>
     <use style="fill:#4c72b0;stroke:#4c72b0;" x="438.223103" xlink:href="#ma61f1267ca" y="226.295286"/>
     <use style="fill:#4c72b0;stroke:#4c72b0;" x="440.511552" xlink:href="#ma61f1267ca" y="222.227539"/>
     <use style="fill:#4c72b0;stroke:#4c72b0;" x="442.8" xlink:href="#ma61f1267ca" y="260.526753"/>
     <use style="fill:#4c72b0;stroke:#4c72b0;" x="445.088448" xlink:href="#ma61f1267ca" y="249.996652"/>
     <use style="fill:#4c72b0;stroke:#4c72b0;" x="447.376897" xlink:href="#ma61f1267ca" y="282.744585"/>
     <use style="fill:#4c72b0;stroke:#4c72b0;" x="449.665345" xlink:href="#ma61f1267ca" y="314.595639"/>
     <use style="fill:#4c72b0;stroke:#4c72b0;" x="451.953794" xlink:href="#ma61f1267ca" y="166.860961"/>
     <use style="fill:#4c72b0;stroke:#4c72b0;" x="454.242242" xlink:href="#ma61f1267ca" y="320.442671"/>
     <use style="fill:#4c72b0;stroke:#4c72b0;" x="456.53069" xlink:href="#ma61f1267ca" y="284.89534"/>
     <use style="fill:#4c72b0;stroke:#4c72b0;" x="458.819139" xlink:href="#ma61f1267ca" y="281.0899"/>
     <use style="fill:#4c72b0;stroke:#4c72b0;" x="461.107587" xlink:href="#ma61f1267ca" y="276.102758"/>
     <use style="fill:#4c72b0;stroke:#4c72b0;" x="463.396036" xlink:href="#ma61f1267ca" y="298.992854"/>
     <use style="fill:#4c72b0;stroke:#4c72b0;" x="465.684484" xlink:href="#ma61f1267ca" y="282.488808"/>
     <use style="fill:#4c72b0;stroke:#4c72b0;" x="467.972932" xlink:href="#ma61f1267ca" y="243.022621"/>
     <use style="fill:#4c72b0;stroke:#4c72b0;" x="470.261381" xlink:href="#ma61f1267ca" y="300.848858"/>
     <use style="fill:#4c72b0;stroke:#4c72b0;" x="472.549829" xlink:href="#ma61f1267ca" y="301.847742"/>
     <use style="fill:#4c72b0;stroke:#4c72b0;" x="474.838278" xlink:href="#ma61f1267ca" y="352.764045"/>
     <use style="fill:#4c72b0;stroke:#4c72b0;" x="477.126726" xlink:href="#ma61f1267ca" y="239.590454"/>
     <use style="fill:#4c72b0;stroke:#4c72b0;" x="479.415174" xlink:href="#ma61f1267ca" y="265.23012"/>
     <use style="fill:#4c72b0;stroke:#4c72b0;" x="481.703623" xlink:href="#ma61f1267ca" y="279.798216"/>
     <use style="fill:#4c72b0;stroke:#4c72b0;" x="483.992071" xlink:href="#ma61f1267ca" y="286.029443"/>
     <use style="fill:#4c72b0;stroke:#4c72b0;" x="486.280519" xlink:href="#ma61f1267ca" y="240.369032"/>
     <use style="fill:#4c72b0;stroke:#4c72b0;" x="488.568968" xlink:href="#ma61f1267ca" y="199.6633"/>
     <use style="fill:#4c72b0;stroke:#4c72b0;" x="490.857416" xlink:href="#ma61f1267ca" y="239.212085"/>
     <use style="fill:#4c72b0;stroke:#4c72b0;" x="493.145865" xlink:href="#ma61f1267ca" y="260.689061"/>
     <use style="fill:#4c72b0;stroke:#4c72b0;" x="495.434313" xlink:href="#ma61f1267ca" y="275.869219"/>
     <use style="fill:#4c72b0;stroke:#4c72b0;" x="497.722761" xlink:href="#ma61f1267ca" y="264.568007"/>
     <use style="fill:#4c72b0;stroke:#4c72b0;" x="500.01121" xlink:href="#ma61f1267ca" y="224.615497"/>
     <use style="fill:#4c72b0;stroke:#4c72b0;" x="502.299658" xlink:href="#ma61f1267ca" y="207.620256"/>
     <use style="fill:#4c72b0;stroke:#4c72b0;" x="504.588107" xlink:href="#ma61f1267ca" y="308.95499"/>
     <use style="fill:#4c72b0;stroke:#4c72b0;" x="506.876555" xlink:href="#ma61f1267ca" y="266.109053"/>
     <use style="fill:#4c72b0;stroke:#4c72b0;" x="509.165003" xlink:href="#ma61f1267ca" y="298.175695"/>
     <use style="fill:#4c72b0;stroke:#4c72b0;" x="511.453452" xlink:href="#ma61f1267ca" y="226.483601"/>
     <use style="fill:#4c72b0;stroke:#4c72b0;" x="513.7419" xlink:href="#ma61f1267ca" y="270.673527"/>
     <use style="fill:#4c72b0;stroke:#4c72b0;" x="516.030349" xlink:href="#ma61f1267ca" y="271.403604"/>
     <use style="fill:#4c72b0;stroke:#4c72b0;" x="518.318797" xlink:href="#ma61f1267ca" y="310.570701"/>
     <use style="fill:#4c72b0;stroke:#4c72b0;" x="520.607245" xlink:href="#ma61f1267ca" y="288.733954"/>
     <use style="fill:#4c72b0;stroke:#4c72b0;" x="522.895694" xlink:href="#ma61f1267ca" y="292.268213"/>
     <use style="fill:#4c72b0;stroke:#4c72b0;" x="525.184142" xlink:href="#ma61f1267ca" y="250.935976"/>
     <use style="fill:#4c72b0;stroke:#4c72b0;" x="527.472591" xlink:href="#ma61f1267ca" y="244.408629"/>
     <use style="fill:#4c72b0;stroke:#4c72b0;" x="529.761039" xlink:href="#ma61f1267ca" y="283.88956"/>
     <use style="fill:#4c72b0;stroke:#4c72b0;" x="532.049487" xlink:href="#ma61f1267ca" y="269.68513"/>
     <use style="fill:#4c72b0;stroke:#4c72b0;" x="534.337936" xlink:href="#ma61f1267ca" y="177.321646"/>
     <use style="fill:#4c72b0;stroke:#4c72b0;" x="536.626384" xlink:href="#ma61f1267ca" y="221.588766"/>
     <use style="fill:#4c72b0;stroke:#4c72b0;" x="538.914833" xlink:href="#ma61f1267ca" y="245.46733"/>
     <use style="fill:#4c72b0;stroke:#4c72b0;" x="541.203281" xlink:href="#ma61f1267ca" y="213.880353"/>
     <use style="fill:#4c72b0;stroke:#4c72b0;" x="543.491729" xlink:href="#ma61f1267ca" y="241.894392"/>
     <use style="fill:#4c72b0;stroke:#4c72b0;" x="545.780178" xlink:href="#ma61f1267ca" y="280.968395"/>
     <use style="fill:#4c72b0;stroke:#4c72b0;" x="548.068626" xlink:href="#ma61f1267ca" y="421.034831"/>
     <use style="fill:#4c72b0;stroke:#4c72b0;" x="550.357075" xlink:href="#ma61f1267ca" y="274.100748"/>
     <use style="fill:#4c72b0;stroke:#4c72b0;" x="552.645523" xlink:href="#ma61f1267ca" y="249.666919"/>
     <use style="fill:#4c72b0;stroke:#4c72b0;" x="554.933971" xlink:href="#ma61f1267ca" y="306.399426"/>
     <use style="fill:#4c72b0;stroke:#4c72b0;" x="557.22242" xlink:href="#ma61f1267ca" y="224.423315"/>
     <use style="fill:#4c72b0;stroke:#4c72b0;" x="559.510868" xlink:href="#ma61f1267ca" y="294.342021"/>
     <use style="fill:#4c72b0;stroke:#4c72b0;" x="561.799316" xlink:href="#ma61f1267ca" y="353.969073"/>
     <use style="fill:#4c72b0;stroke:#4c72b0;" x="564.087765" xlink:href="#ma61f1267ca" y="356.427555"/>
     <use style="fill:#4c72b0;stroke:#4c72b0;" x="566.376213" xlink:href="#ma61f1267ca" y="278.866953"/>
     <use style="fill:#4c72b0;stroke:#4c72b0;" x="568.664662" xlink:href="#ma61f1267ca" y="291.328574"/>
     <use style="fill:#4c72b0;stroke:#4c72b0;" x="570.95311" xlink:href="#ma61f1267ca" y="299.066529"/>
     <use style="fill:#4c72b0;stroke:#4c72b0;" x="573.241558" xlink:href="#ma61f1267ca" y="222.314416"/>
     <use style="fill:#4c72b0;stroke:#4c72b0;" x="575.530007" xlink:href="#ma61f1267ca" y="243.758624"/>
     <use style="fill:#4c72b0;stroke:#4c72b0;" x="577.818455" xlink:href="#ma61f1267ca" y="196.911861"/>
     <use style="fill:#4c72b0;stroke:#4c72b0;" x="580.106904" xlink:href="#ma61f1267ca" y="298.300008"/>
     <use style="fill:#4c72b0;stroke:#4c72b0;" x="582.395352" xlink:href="#ma61f1267ca" y="271.664475"/>
     <use style="fill:#4c72b0;stroke:#4c72b0;" x="584.6838" xlink:href="#ma61f1267ca" y="252.606139"/>
     <use style="fill:#4c72b0;stroke:#4c72b0;" x="586.972249" xlink:href="#ma61f1267ca" y="259.450054"/>
     <use style="fill:#4c72b0;stroke:#4c72b0;" x="589.260697" xlink:href="#ma61f1267ca" y="274.554674"/>
     <use style="fill:#4c72b0;stroke:#4c72b0;" x="591.549146" xlink:href="#ma61f1267ca" y="248.417819"/>
     <use style="fill:#4c72b0;stroke:#4c72b0;" x="593.837594" xlink:href="#ma61f1267ca" y="264.20474"/>
     <use style="fill:#4c72b0;stroke:#4c72b0;" x="596.126042" xlink:href="#ma61f1267ca" y="173.781451"/>
     <use style="fill:#4c72b0;stroke:#4c72b0;" x="598.414491" xlink:href="#ma61f1267ca" y="217.398776"/>
     <use style="fill:#4c72b0;stroke:#4c72b0;" x="600.702939" xlink:href="#ma61f1267ca" y="185.59201"/>
     <use style="fill:#4c72b0;stroke:#4c72b0;" x="602.991388" xlink:href="#ma61f1267ca" y="266.216959"/>
     <use style="fill:#4c72b0;stroke:#4c72b0;" x="605.279836" xlink:href="#ma61f1267ca" y="243.306443"/>
     <use style="fill:#4c72b0;stroke:#4c72b0;" x="607.568284" xlink:href="#ma61f1267ca" y="236.382461"/>
     <use style="fill:#4c72b0;stroke:#4c72b0;" x="609.856733" xlink:href="#ma61f1267ca" y="278.838176"/>
     <use style="fill:#4c72b0;stroke:#4c72b0;" x="612.145181" xlink:href="#ma61f1267ca" y="226.771108"/>
     <use style="fill:#4c72b0;stroke:#4c72b0;" x="614.43363" xlink:href="#ma61f1267ca" y="239.908553"/>
     <use style="fill:#4c72b0;stroke:#4c72b0;" x="616.722078" xlink:href="#ma61f1267ca" y="312.923109"/>
     <use style="fill:#4c72b0;stroke:#4c72b0;" x="619.010526" xlink:href="#ma61f1267ca" y="118.512975"/>
     <use style="fill:#4c72b0;stroke:#4c72b0;" x="621.298975" xlink:href="#ma61f1267ca" y="326.498545"/>
     <use style="fill:#4c72b0;stroke:#4c72b0;" x="623.587423" xlink:href="#ma61f1267ca" y="241.358069"/>
     <use style="fill:#4c72b0;stroke:#4c72b0;" x="625.875871" xlink:href="#ma61f1267ca" y="305.424861"/>
     <use style="fill:#4c72b0;stroke:#4c72b0;" x="628.16432" xlink:href="#ma61f1267ca" y="218.119672"/>
     <use style="fill:#4c72b0;stroke:#4c72b0;" x="630.452768" xlink:href="#ma61f1267ca" y="234.396975"/>
     <use style="fill:#4c72b0;stroke:#4c72b0;" x="632.741217" xlink:href="#ma61f1267ca" y="262.922678"/>
     <use style="fill:#4c72b0;stroke:#4c72b0;" x="635.029665" xlink:href="#ma61f1267ca" y="347.407616"/>
     <use style="fill:#4c72b0;stroke:#4c72b0;" x="637.318113" xlink:href="#ma61f1267ca" y="327.90279"/>
     <use style="fill:#4c72b0;stroke:#4c72b0;" x="639.606562" xlink:href="#ma61f1267ca" y="268.287924"/>
     <use style="fill:#4c72b0;stroke:#4c72b0;" x="641.89501" xlink:href="#ma61f1267ca" y="317.898173"/>
     <use style="fill:#4c72b0;stroke:#4c72b0;" x="644.183459" xlink:href="#ma61f1267ca" y="244.58189"/>
     <use style="fill:#4c72b0;stroke:#4c72b0;" x="646.471907" xlink:href="#ma61f1267ca" y="269.961955"/>
     <use style="fill:#4c72b0;stroke:#4c72b0;" x="648.760355" xlink:href="#ma61f1267ca" y="225.061541"/>
     <use style="fill:#4c72b0;stroke:#4c72b0;" x="651.048804" xlink:href="#ma61f1267ca" y="200.296009"/>
     <use style="fill:#4c72b0;stroke:#4c72b0;" x="653.337252" xlink:href="#ma61f1267ca" y="256.208856"/>
     <use style="fill:#4c72b0;stroke:#4c72b0;" x="655.625701" xlink:href="#ma61f1267ca" y="278.399522"/>
     <use style="fill:#4c72b0;stroke:#4c72b0;" x="657.914149" xlink:href="#ma61f1267ca" y="142.062893"/>
     <use style="fill:#4c72b0;stroke:#4c72b0;" x="660.202597" xlink:href="#ma61f1267ca" y="212.496215"/>
     <use style="fill:#4c72b0;stroke:#4c72b0;" x="662.491046" xlink:href="#ma61f1267ca" y="298.108811"/>
     <use style="fill:#4c72b0;stroke:#4c72b0;" x="664.779494" xlink:href="#ma61f1267ca" y="244.847612"/>
     <use style="fill:#4c72b0;stroke:#4c72b0;" x="667.067943" xlink:href="#ma61f1267ca" y="194.768753"/>
     <use style="fill:#4c72b0;stroke:#4c72b0;" x="669.356391" xlink:href="#ma61f1267ca" y="309.969068"/>
     <use style="fill:#4c72b0;stroke:#4c72b0;" x="671.644839" xlink:href="#ma61f1267ca" y="308.970452"/>
     <use style="fill:#4c72b0;stroke:#4c72b0;" x="673.933288" xlink:href="#ma61f1267ca" y="183.622499"/>
     <use style="fill:#4c72b0;stroke:#4c72b0;" x="676.221736" xlink:href="#ma61f1267ca" y="279.414765"/>
     <use style="fill:#4c72b0;stroke:#4c72b0;" x="678.510185" xlink:href="#ma61f1267ca" y="212.516807"/>
     <use style="fill:#4c72b0;stroke:#4c72b0;" x="680.798633" xlink:href="#ma61f1267ca" y="223.539802"/>
     <use style="fill:#4c72b0;stroke:#4c72b0;" x="683.087081" xlink:href="#ma61f1267ca" y="193.888979"/>
     <use style="fill:#4c72b0;stroke:#4c72b0;" x="685.37553" xlink:href="#ma61f1267ca" y="280.542118"/>
     <use style="fill:#4c72b0;stroke:#4c72b0;" x="687.663978" xlink:href="#ma61f1267ca" y="105.987109"/>
     <use style="fill:#4c72b0;stroke:#4c72b0;" x="689.952427" xlink:href="#ma61f1267ca" y="324.534369"/>
     <use style="fill:#4c72b0;stroke:#4c72b0;" x="692.240875" xlink:href="#ma61f1267ca" y="229.950333"/>
     <use style="fill:#4c72b0;stroke:#4c72b0;" x="694.529323" xlink:href="#ma61f1267ca" y="218.22259"/>
     <use style="fill:#4c72b0;stroke:#4c72b0;" x="696.817772" xlink:href="#ma61f1267ca" y="294.384547"/>
     <use style="fill:#4c72b0;stroke:#4c72b0;" x="699.10622" xlink:href="#ma61f1267ca" y="358.466137"/>
     <use style="fill:#4c72b0;stroke:#4c72b0;" x="701.394668" xlink:href="#ma61f1267ca" y="145.076765"/>
     <use style="fill:#4c72b0;stroke:#4c72b0;" x="703.683117" xlink:href="#ma61f1267ca" y="294.154259"/>
     <use style="fill:#4c72b0;stroke:#4c72b0;" x="705.971565" xlink:href="#ma61f1267ca" y="133.643616"/>
     <use style="fill:#4c72b0;stroke:#4c72b0;" x="708.260014" xlink:href="#ma61f1267ca" y="232.689506"/>
     <use style="fill:#4c72b0;stroke:#4c72b0;" x="710.548462" xlink:href="#ma61f1267ca" y="304.115115"/>
     <use style="fill:#4c72b0;stroke:#4c72b0;" x="712.83691" xlink:href="#ma61f1267ca" y="325.292687"/>
     <use style="fill:#4c72b0;stroke:#4c72b0;" x="715.125359" xlink:href="#ma61f1267ca" y="316.460134"/>
     <use style="fill:#4c72b0;stroke:#4c72b0;" x="717.413807" xlink:href="#ma61f1267ca" y="282.994866"/>
     <use style="fill:#4c72b0;stroke:#4c72b0;" x="719.702256" xlink:href="#ma61f1267ca" y="279.863205"/>
     <use style="fill:#4c72b0;stroke:#4c72b0;" x="721.990704" xlink:href="#ma61f1267ca" y="335.89814"/>
     <use style="fill:#4c72b0;stroke:#4c72b0;" x="724.279152" xlink:href="#ma61f1267ca" y="255.606611"/>
     <use style="fill:#4c72b0;stroke:#4c72b0;" x="726.567601" xlink:href="#ma61f1267ca" y="274.513548"/>
     <use style="fill:#4c72b0;stroke:#4c72b0;" x="728.856049" xlink:href="#ma61f1267ca" y="293.402534"/>
     <use style="fill:#4c72b0;stroke:#4c72b0;" x="731.144498" xlink:href="#ma61f1267ca" y="294.6814"/>
     <use style="fill:#4c72b0;stroke:#4c72b0;" x="733.432946" xlink:href="#ma61f1267ca" y="353.228382"/>
     <use style="fill:#4c72b0;stroke:#4c72b0;" x="735.721394" xlink:href="#ma61f1267ca" y="318.224028"/>
     <use style="fill:#4c72b0;stroke:#4c72b0;" x="738.009843" xlink:href="#ma61f1267ca" y="334.435701"/>
     <use style="fill:#4c72b0;stroke:#4c72b0;" x="740.298291" xlink:href="#ma61f1267ca" y="377.909434"/>
     <use style="fill:#4c72b0;stroke:#4c72b0;" x="742.58674" xlink:href="#ma61f1267ca" y="169.711911"/>
     <use style="fill:#4c72b0;stroke:#4c72b0;" x="744.875188" xlink:href="#ma61f1267ca" y="332.275595"/>
     <use style="fill:#4c72b0;stroke:#4c72b0;" x="747.163636" xlink:href="#ma61f1267ca" y="298.685092"/>
    </g>
   </g>
   <g id="patch_3">
    <path d="M 108 504 
L 108 69.12 
" style="fill:none;stroke:#ffffff;stroke-linecap:square;stroke-linejoin:miter;stroke-width:1.25;"/>
   </g>
   <g id="patch_4">
    <path d="M 777.6 504 
L 777.6 69.12 
" style="fill:none;stroke:#ffffff;stroke-linecap:square;stroke-linejoin:miter;stroke-width:1.25;"/>
   </g>
   <g id="patch_5">
    <path d="M 108 504 
L 777.6 504 
" style="fill:none;stroke:#ffffff;stroke-linecap:square;stroke-linejoin:miter;stroke-width:1.25;"/>
   </g>
   <g id="patch_6">
    <path d="M 108 69.12 
L 777.6 69.12 
" style="fill:none;stroke:#ffffff;stroke-linecap:square;stroke-linejoin:miter;stroke-width:1.25;"/>
   </g>
  </g>
 </g>
 <defs>
  <clipPath id="pbf0ed36622">
   <rect height="434.88" width="669.6" x="108" y="69.12"/>
  </clipPath>
 </defs>
</svg>
