<?xml version="1.0" encoding="utf-8" standalone="no"?>
<!DOCTYPE svg PUBLIC "-//W3C//DTD SVG 1.1//EN"
  "http://www.w3.org/Graphics/SVG/1.1/DTD/svg11.dtd">
<!-- Created with matplotlib (http://matplotlib.org/) -->
<svg height="576pt" version="1.1" viewBox="0 0 864 576" width="864pt" xmlns="http://www.w3.org/2000/svg" xmlns:xlink="http://www.w3.org/1999/xlink">
 <defs>
  <style type="text/css">
*{stroke-linecap:butt;stroke-linejoin:round;}
  </style>
 </defs>
 <g id="figure_1">
  <g id="patch_1">
   <path d="M 0 576 
L 864 576 
L 864 0 
L 0 0 
z
" style="fill:#ffffff;"/>
  </g>
  <g id="axes_1">
   <g id="patch_2">
    <path d="M 108 504 
L 777.6 504 
L 777.6 69.12 
L 108 69.12 
z
" style="fill:#eaeaf2;"/>
   </g>
   <g id="matplotlib.axis_1">
    <g id="xtick_1">
     <g id="line2d_1">
      <path clip-path="url(#p8b48c447c2)" d="M 138.436364 504 
L 138.436364 69.12 
" style="fill:none;stroke:#ffffff;stroke-linecap:round;"/>
     </g>
     <g id="text_1">
      <!-- 0 -->
      <defs>
       <path d="M 4.15625 35.296875 
Q 4.15625 48 6.765625 55.734375 
Q 9.375 63.484375 14.515625 67.671875 
Q 19.671875 71.875 27.484375 71.875 
Q 33.25 71.875 37.59375 69.546875 
Q 41.9375 67.234375 44.765625 62.859375 
Q 47.609375 58.5 49.21875 52.21875 
Q 50.828125 45.953125 50.828125 35.296875 
Q 50.828125 22.703125 48.234375 14.96875 
Q 45.65625 7.234375 40.5 3 
Q 35.359375 -1.21875 27.484375 -1.21875 
Q 17.140625 -1.21875 11.234375 6.203125 
Q 4.15625 15.140625 4.15625 35.296875 
z
M 13.1875 35.296875 
Q 13.1875 17.671875 17.3125 11.828125 
Q 21.4375 6 27.484375 6 
Q 33.546875 6 37.671875 11.859375 
Q 41.796875 17.71875 41.796875 35.296875 
Q 41.796875 52.984375 37.671875 58.78125 
Q 33.546875 64.59375 27.390625 64.59375 
Q 21.34375 64.59375 17.71875 59.46875 
Q 13.1875 52.9375 13.1875 35.296875 
z
" id="ArialMT-30"/>
      </defs>
      <g style="fill:#262626;" transform="translate(135.377848 521.373594)scale(0.11 -0.11)">
       <use xlink:href="#ArialMT-30"/>
      </g>
     </g>
    </g>
    <g id="xtick_2">
     <g id="line2d_2">
      <path clip-path="url(#p8b48c447c2)" d="M 252.858783 504 
L 252.858783 69.12 
" style="fill:none;stroke:#ffffff;stroke-linecap:round;"/>
     </g>
     <g id="text_2">
      <!-- 50 -->
      <defs>
       <path d="M 4.15625 18.75 
L 13.375 19.53125 
Q 14.40625 12.796875 18.140625 9.390625 
Q 21.875 6 27.15625 6 
Q 33.5 6 37.890625 10.78125 
Q 42.28125 15.578125 42.28125 23.484375 
Q 42.28125 31 38.0625 35.34375 
Q 33.84375 39.703125 27 39.703125 
Q 22.75 39.703125 19.328125 37.765625 
Q 15.921875 35.84375 13.96875 32.765625 
L 5.71875 33.84375 
L 12.640625 70.609375 
L 48.25 70.609375 
L 48.25 62.203125 
L 19.671875 62.203125 
L 15.828125 42.96875 
Q 22.265625 47.46875 29.34375 47.46875 
Q 38.71875 47.46875 45.15625 40.96875 
Q 51.609375 34.46875 51.609375 24.265625 
Q 51.609375 14.546875 45.953125 7.46875 
Q 39.0625 -1.21875 27.15625 -1.21875 
Q 17.390625 -1.21875 11.203125 4.25 
Q 5.03125 9.71875 4.15625 18.75 
z
" id="ArialMT-35"/>
      </defs>
      <g style="fill:#262626;" transform="translate(246.741752 521.373594)scale(0.11 -0.11)">
       <use xlink:href="#ArialMT-35"/>
       <use x="55.615234" xlink:href="#ArialMT-30"/>
      </g>
     </g>
    </g>
    <g id="xtick_3">
     <g id="line2d_3">
      <path clip-path="url(#p8b48c447c2)" d="M 367.281203 504 
L 367.281203 69.12 
" style="fill:none;stroke:#ffffff;stroke-linecap:round;"/>
     </g>
     <g id="text_3">
      <!-- 100 -->
      <defs>
       <path d="M 37.25 0 
L 28.46875 0 
L 28.46875 56 
Q 25.296875 52.984375 20.140625 49.953125 
Q 14.984375 46.921875 10.890625 45.40625 
L 10.890625 53.90625 
Q 18.265625 57.375 23.78125 62.296875 
Q 29.296875 67.234375 31.59375 71.875 
L 37.25 71.875 
z
" id="ArialMT-31"/>
      </defs>
      <g style="fill:#262626;" transform="translate(358.105656 521.373594)scale(0.11 -0.11)">
       <use xlink:href="#ArialMT-31"/>
       <use x="55.615234" xlink:href="#ArialMT-30"/>
       <use x="111.230469" xlink:href="#ArialMT-30"/>
      </g>
     </g>
    </g>
    <g id="xtick_4">
     <g id="line2d_4">
      <path clip-path="url(#p8b48c447c2)" d="M 481.703623 504 
L 481.703623 69.12 
" style="fill:none;stroke:#ffffff;stroke-linecap:round;"/>
     </g>
     <g id="text_4">
      <!-- 150 -->
      <g style="fill:#262626;" transform="translate(472.528076 521.373594)scale(0.11 -0.11)">
       <use xlink:href="#ArialMT-31"/>
       <use x="55.615234" xlink:href="#ArialMT-35"/>
       <use x="111.230469" xlink:href="#ArialMT-30"/>
      </g>
     </g>
    </g>
    <g id="xtick_5">
     <g id="line2d_5">
      <path clip-path="url(#p8b48c447c2)" d="M 596.126042 504 
L 596.126042 69.12 
" style="fill:none;stroke:#ffffff;stroke-linecap:round;"/>
     </g>
     <g id="text_5">
      <!-- 200 -->
      <defs>
       <path d="M 50.34375 8.453125 
L 50.34375 0 
L 3.03125 0 
Q 2.9375 3.171875 4.046875 6.109375 
Q 5.859375 10.9375 9.828125 15.625 
Q 13.8125 20.3125 21.34375 26.46875 
Q 33.015625 36.03125 37.109375 41.625 
Q 41.21875 47.21875 41.21875 52.203125 
Q 41.21875 57.421875 37.46875 61 
Q 33.734375 64.59375 27.734375 64.59375 
Q 21.390625 64.59375 17.578125 60.78125 
Q 13.765625 56.984375 13.71875 50.25 
L 4.6875 51.171875 
Q 5.609375 61.28125 11.65625 66.578125 
Q 17.71875 71.875 27.9375 71.875 
Q 38.234375 71.875 44.234375 66.15625 
Q 50.25 60.453125 50.25 52 
Q 50.25 47.703125 48.484375 43.546875 
Q 46.734375 39.40625 42.65625 34.8125 
Q 38.578125 30.21875 29.109375 22.21875 
Q 21.1875 15.578125 18.9375 13.203125 
Q 16.703125 10.84375 15.234375 8.453125 
z
" id="ArialMT-32"/>
      </defs>
      <g style="fill:#262626;" transform="translate(586.950496 521.373594)scale(0.11 -0.11)">
       <use xlink:href="#ArialMT-32"/>
       <use x="55.615234" xlink:href="#ArialMT-30"/>
       <use x="111.230469" xlink:href="#ArialMT-30"/>
      </g>
     </g>
    </g>
    <g id="xtick_6">
     <g id="line2d_6">
      <path clip-path="url(#p8b48c447c2)" d="M 710.548462 504 
L 710.548462 69.12 
" style="fill:none;stroke:#ffffff;stroke-linecap:round;"/>
     </g>
     <g id="text_6">
      <!-- 250 -->
      <g style="fill:#262626;" transform="translate(701.372915 521.373594)scale(0.11 -0.11)">
       <use xlink:href="#ArialMT-32"/>
       <use x="55.615234" xlink:href="#ArialMT-35"/>
       <use x="111.230469" xlink:href="#ArialMT-30"/>
      </g>
     </g>
    </g>
   </g>
   <g id="matplotlib.axis_2">
    <g id="ytick_1">
     <g id="line2d_7">
      <path clip-path="url(#p8b48c447c2)" d="M 108 450.624841 
L 777.6 450.624841 
" style="fill:none;stroke:#ffffff;stroke-linecap:round;"/>
     </g>
     <g id="text_7">
      <!-- −2 -->
      <defs>
       <path d="M 52.828125 31.203125 
L 5.5625 31.203125 
L 5.5625 39.40625 
L 52.828125 39.40625 
z
" id="ArialMT-2212"/>
      </defs>
      <g style="fill:#262626;" transform="translate(85.958281 454.561638)scale(0.11 -0.11)">
       <use xlink:href="#ArialMT-2212"/>
       <use x="58.398438" xlink:href="#ArialMT-32"/>
      </g>
     </g>
    </g>
    <g id="ytick_2">
     <g id="line2d_8">
      <path clip-path="url(#p8b48c447c2)" d="M 108 361.224618 
L 777.6 361.224618 
" style="fill:none;stroke:#ffffff;stroke-linecap:round;"/>
     </g>
     <g id="text_8">
      <!-- −1 -->
      <g style="fill:#262626;" transform="translate(85.958281 365.161415)scale(0.11 -0.11)">
       <use xlink:href="#ArialMT-2212"/>
       <use x="58.398438" xlink:href="#ArialMT-31"/>
      </g>
     </g>
    </g>
    <g id="ytick_3">
     <g id="line2d_9">
      <path clip-path="url(#p8b48c447c2)" d="M 108 271.824394 
L 777.6 271.824394 
" style="fill:none;stroke:#ffffff;stroke-linecap:round;"/>
     </g>
     <g id="text_9">
      <!-- 0 -->
      <g style="fill:#262626;" transform="translate(92.382969 275.761191)scale(0.11 -0.11)">
       <use xlink:href="#ArialMT-30"/>
      </g>
     </g>
    </g>
    <g id="ytick_4">
     <g id="line2d_10">
      <path clip-path="url(#p8b48c447c2)" d="M 108 182.42417 
L 777.6 182.42417 
" style="fill:none;stroke:#ffffff;stroke-linecap:round;"/>
     </g>
     <g id="text_10">
      <!-- 1 -->
      <g style="fill:#262626;" transform="translate(92.382969 186.360967)scale(0.11 -0.11)">
       <use xlink:href="#ArialMT-31"/>
      </g>
     </g>
    </g>
    <g id="ytick_5">
     <g id="line2d_11">
      <path clip-path="url(#p8b48c447c2)" d="M 108 93.023946 
L 777.6 93.023946 
" style="fill:none;stroke:#ffffff;stroke-linecap:round;"/>
     </g>
     <g id="text_11">
      <!-- 2 -->
      <g style="fill:#262626;" transform="translate(92.382969 96.960743)scale(0.11 -0.11)">
       <use xlink:href="#ArialMT-32"/>
      </g>
     </g>
    </g>
   </g>
   <g id="line2d_12">
    <defs>
     <path d="M 0 3 
C 0.795609 3 1.55874 2.683901 2.12132 2.12132 
C 2.683901 1.55874 3 0.795609 3 0 
C 3 -0.795609 2.683901 -1.55874 2.12132 -2.12132 
C 1.55874 -2.683901 0.795609 -3 0 -3 
C -0.795609 -3 -1.55874 -2.683901 -2.12132 -2.12132 
C -2.683901 -1.55874 -3 -0.795609 -3 0 
C -3 0.795609 -2.683901 1.55874 -2.12132 2.12132 
C -1.55874 2.683901 -0.795609 3 0 3 
z
" id="m10da4c4cbc" style="stroke:#4c72b0;"/>
    </defs>
    <g clip-path="url(#p8b48c447c2)">
     <use style="fill:#4c72b0;stroke:#4c72b0;" x="138.436364" xlink:href="#m10da4c4cbc" y="254.065893"/>
     <use style="fill:#4c72b0;stroke:#4c72b0;" x="140.724812" xlink:href="#m10da4c4cbc" y="241.126695"/>
     <use style="fill:#4c72b0;stroke:#4c72b0;" x="143.01326" xlink:href="#m10da4c4cbc" y="261.290303"/>
     <use style="fill:#4c72b0;stroke:#4c72b0;" x="145.301709" xlink:href="#m10da4c4cbc" y="213.169125"/>
     <use style="fill:#4c72b0;stroke:#4c72b0;" x="147.590157" xlink:href="#m10da4c4cbc" y="301.701891"/>
     <use style="fill:#4c72b0;stroke:#4c72b0;" x="149.878606" xlink:href="#m10da4c4cbc" y="248.963189"/>
     <use style="fill:#4c72b0;stroke:#4c72b0;" x="152.167054" xlink:href="#m10da4c4cbc" y="250.923983"/>
     <use style="fill:#4c72b0;stroke:#4c72b0;" x="154.455502" xlink:href="#m10da4c4cbc" y="240.891635"/>
     <use style="fill:#4c72b0;stroke:#4c72b0;" x="156.743951" xlink:href="#m10da4c4cbc" y="224.986207"/>
     <use style="fill:#4c72b0;stroke:#4c72b0;" x="159.032399" xlink:href="#m10da4c4cbc" y="241.620629"/>
     <use style="fill:#4c72b0;stroke:#4c72b0;" x="161.320848" xlink:href="#m10da4c4cbc" y="92.211736"/>
     <use style="fill:#4c72b0;stroke:#4c72b0;" x="163.609296" xlink:href="#m10da4c4cbc" y="254.468571"/>
     <use style="fill:#4c72b0;stroke:#4c72b0;" x="165.897744" xlink:href="#m10da4c4cbc" y="88.887273"/>
     <use style="fill:#4c72b0;stroke:#4c72b0;" x="168.186193" xlink:href="#m10da4c4cbc" y="224.047133"/>
     <use style="fill:#4c72b0;stroke:#4c72b0;" x="170.474641" xlink:href="#m10da4c4cbc" y="288.233331"/>
     <use style="fill:#4c72b0;stroke:#4c72b0;" x="172.76309" xlink:href="#m10da4c4cbc" y="228.890297"/>
     <use style="fill:#4c72b0;stroke:#4c72b0;" x="175.051538" xlink:href="#m10da4c4cbc" y="277.970241"/>
     <use style="fill:#4c72b0;stroke:#4c72b0;" x="177.339986" xlink:href="#m10da4c4cbc" y="202.232641"/>
     <use style="fill:#4c72b0;stroke:#4c72b0;" x="179.628435" xlink:href="#m10da4c4cbc" y="270.905853"/>
     <use style="fill:#4c72b0;stroke:#4c72b0;" x="181.916883" xlink:href="#m10da4c4cbc" y="297.505289"/>
     <use style="fill:#4c72b0;stroke:#4c72b0;" x="184.205332" xlink:href="#m10da4c4cbc" y="394.310261"/>
     <use style="fill:#4c72b0;stroke:#4c72b0;" x="186.49378" xlink:href="#m10da4c4cbc" y="305.806381"/>
     <use style="fill:#4c72b0;stroke:#4c72b0;" x="188.782228" xlink:href="#m10da4c4cbc" y="476.117201"/>
     <use style="fill:#4c72b0;stroke:#4c72b0;" x="191.070677" xlink:href="#m10da4c4cbc" y="267.790214"/>
     <use style="fill:#4c72b0;stroke:#4c72b0;" x="193.359125" xlink:href="#m10da4c4cbc" y="232.534403"/>
     <use style="fill:#4c72b0;stroke:#4c72b0;" x="195.647573" xlink:href="#m10da4c4cbc" y="229.724973"/>
     <use style="fill:#4c72b0;stroke:#4c72b0;" x="197.936022" xlink:href="#m10da4c4cbc" y="135.821299"/>
     <use style="fill:#4c72b0;stroke:#4c72b0;" x="200.22447" xlink:href="#m10da4c4cbc" y="289.571489"/>
     <use style="fill:#4c72b0;stroke:#4c72b0;" x="202.512919" xlink:href="#m10da4c4cbc" y="139.252552"/>
     <use style="fill:#4c72b0;stroke:#4c72b0;" x="204.801367" xlink:href="#m10da4c4cbc" y="219.131652"/>
     <use style="fill:#4c72b0;stroke:#4c72b0;" x="207.089815" xlink:href="#m10da4c4cbc" y="207.092032"/>
     <use style="fill:#4c72b0;stroke:#4c72b0;" x="209.378264" xlink:href="#m10da4c4cbc" y="484.232727"/>
     <use style="fill:#4c72b0;stroke:#4c72b0;" x="211.666712" xlink:href="#m10da4c4cbc" y="298.541416"/>
     <use style="fill:#4c72b0;stroke:#4c72b0;" x="213.955161" xlink:href="#m10da4c4cbc" y="328.457229"/>
     <use style="fill:#4c72b0;stroke:#4c72b0;" x="216.243609" xlink:href="#m10da4c4cbc" y="303.846202"/>
     <use style="fill:#4c72b0;stroke:#4c72b0;" x="218.532057" xlink:href="#m10da4c4cbc" y="215.668348"/>
     <use style="fill:#4c72b0;stroke:#4c72b0;" x="220.820506" xlink:href="#m10da4c4cbc" y="321.606884"/>
     <use style="fill:#4c72b0;stroke:#4c72b0;" x="223.108954" xlink:href="#m10da4c4cbc" y="290.124625"/>
     <use style="fill:#4c72b0;stroke:#4c72b0;" x="225.397403" xlink:href="#m10da4c4cbc" y="312.70128"/>
     <use style="fill:#4c72b0;stroke:#4c72b0;" x="227.685851" xlink:href="#m10da4c4cbc" y="322.043903"/>
     <use style="fill:#4c72b0;stroke:#4c72b0;" x="229.974299" xlink:href="#m10da4c4cbc" y="263.365589"/>
     <use style="fill:#4c72b0;stroke:#4c72b0;" x="232.262748" xlink:href="#m10da4c4cbc" y="296.67293"/>
     <use style="fill:#4c72b0;stroke:#4c72b0;" x="234.551196" xlink:href="#m10da4c4cbc" y="240.639804"/>
     <use style="fill:#4c72b0;stroke:#4c72b0;" x="236.839645" xlink:href="#m10da4c4cbc" y="258.090661"/>
     <use style="fill:#4c72b0;stroke:#4c72b0;" x="239.128093" xlink:href="#m10da4c4cbc" y="261.429304"/>
     <use style="fill:#4c72b0;stroke:#4c72b0;" x="241.416541" xlink:href="#m10da4c4cbc" y="141.642562"/>
     <use style="fill:#4c72b0;stroke:#4c72b0;" x="243.70499" xlink:href="#m10da4c4cbc" y="288.393969"/>
     <use style="fill:#4c72b0;stroke:#4c72b0;" x="245.993438" xlink:href="#m10da4c4cbc" y="323.0045"/>
     <use style="fill:#4c72b0;stroke:#4c72b0;" x="248.281887" xlink:href="#m10da4c4cbc" y="191.65378"/>
     <use style="fill:#4c72b0;stroke:#4c72b0;" x="250.570335" xlink:href="#m10da4c4cbc" y="290.12577"/>
     <use style="fill:#4c72b0;stroke:#4c72b0;" x="252.858783" xlink:href="#m10da4c4cbc" y="272.447781"/>
     <use style="fill:#4c72b0;stroke:#4c72b0;" x="255.147232" xlink:href="#m10da4c4cbc" y="295.968477"/>
     <use style="fill:#4c72b0;stroke:#4c72b0;" x="257.43568" xlink:href="#m10da4c4cbc" y="289.351988"/>
     <use style="fill:#4c72b0;stroke:#4c72b0;" x="259.724129" xlink:href="#m10da4c4cbc" y="324.410971"/>
     <use style="fill:#4c72b0;stroke:#4c72b0;" x="262.012577" xlink:href="#m10da4c4cbc" y="291.782241"/>
     <use style="fill:#4c72b0;stroke:#4c72b0;" x="264.301025" xlink:href="#m10da4c4cbc" y="289.426916"/>
     <use style="fill:#4c72b0;stroke:#4c72b0;" x="266.589474" xlink:href="#m10da4c4cbc" y="339.045052"/>
     <use style="fill:#4c72b0;stroke:#4c72b0;" x="268.877922" xlink:href="#m10da4c4cbc" y="303.540317"/>
     <use style="fill:#4c72b0;stroke:#4c72b0;" x="271.16637" xlink:href="#m10da4c4cbc" y="283.631773"/>
     <use style="fill:#4c72b0;stroke:#4c72b0;" x="273.454819" xlink:href="#m10da4c4cbc" y="281.1047"/>
     <use style="fill:#4c72b0;stroke:#4c72b0;" x="275.743267" xlink:href="#m10da4c4cbc" y="274.262684"/>
     <use style="fill:#4c72b0;stroke:#4c72b0;" x="278.031716" xlink:href="#m10da4c4cbc" y="296.213943"/>
     <use style="fill:#4c72b0;stroke:#4c72b0;" x="280.320164" xlink:href="#m10da4c4cbc" y="252.800518"/>
     <use style="fill:#4c72b0;stroke:#4c72b0;" x="282.608612" xlink:href="#m10da4c4cbc" y="301.012173"/>
     <use style="fill:#4c72b0;stroke:#4c72b0;" x="284.897061" xlink:href="#m10da4c4cbc" y="322.403217"/>
     <use style="fill:#4c72b0;stroke:#4c72b0;" x="287.185509" xlink:href="#m10da4c4cbc" y="316.995172"/>
     <use style="fill:#4c72b0;stroke:#4c72b0;" x="289.473958" xlink:href="#m10da4c4cbc" y="230.267839"/>
     <use style="fill:#4c72b0;stroke:#4c72b0;" x="291.762406" xlink:href="#m10da4c4cbc" y="310.231975"/>
     <use style="fill:#4c72b0;stroke:#4c72b0;" x="294.050854" xlink:href="#m10da4c4cbc" y="310.866266"/>
     <use style="fill:#4c72b0;stroke:#4c72b0;" x="296.339303" xlink:href="#m10da4c4cbc" y="301.340408"/>
     <use style="fill:#4c72b0;stroke:#4c72b0;" x="298.627751" xlink:href="#m10da4c4cbc" y="293.974304"/>
     <use style="fill:#4c72b0;stroke:#4c72b0;" x="300.9162" xlink:href="#m10da4c4cbc" y="287.26902"/>
     <use style="fill:#4c72b0;stroke:#4c72b0;" x="303.204648" xlink:href="#m10da4c4cbc" y="274.039316"/>
     <use style="fill:#4c72b0;stroke:#4c72b0;" x="305.493096" xlink:href="#m10da4c4cbc" y="287.30718"/>
     <use style="fill:#4c72b0;stroke:#4c72b0;" x="307.781545" xlink:href="#m10da4c4cbc" y="247.832584"/>
     <use style="fill:#4c72b0;stroke:#4c72b0;" x="310.069993" xlink:href="#m10da4c4cbc" y="292.905999"/>
     <use style="fill:#4c72b0;stroke:#4c72b0;" x="312.358442" xlink:href="#m10da4c4cbc" y="285.888955"/>
     <use style="fill:#4c72b0;stroke:#4c72b0;" x="314.64689" xlink:href="#m10da4c4cbc" y="245.250196"/>
     <use style="fill:#4c72b0;stroke:#4c72b0;" x="316.935338" xlink:href="#m10da4c4cbc" y="316.370841"/>
     <use style="fill:#4c72b0;stroke:#4c72b0;" x="319.223787" xlink:href="#m10da4c4cbc" y="317.90638"/>
     <use style="fill:#4c72b0;stroke:#4c72b0;" x="321.512235" xlink:href="#m10da4c4cbc" y="254.985138"/>
     <use style="fill:#4c72b0;stroke:#4c72b0;" x="323.800684" xlink:href="#m10da4c4cbc" y="303.509439"/>
     <use style="fill:#4c72b0;stroke:#4c72b0;" x="326.089132" xlink:href="#m10da4c4cbc" y="321.647262"/>
     <use style="fill:#4c72b0;stroke:#4c72b0;" x="328.37758" xlink:href="#m10da4c4cbc" y="270.101367"/>
     <use style="fill:#4c72b0;stroke:#4c72b0;" x="330.666029" xlink:href="#m10da4c4cbc" y="228.45471"/>
     <use style="fill:#4c72b0;stroke:#4c72b0;" x="332.954477" xlink:href="#m10da4c4cbc" y="233.648011"/>
     <use style="fill:#4c72b0;stroke:#4c72b0;" x="335.242925" xlink:href="#m10da4c4cbc" y="270.912557"/>
     <use style="fill:#4c72b0;stroke:#4c72b0;" x="337.531374" xlink:href="#m10da4c4cbc" y="324.314059"/>
     <use style="fill:#4c72b0;stroke:#4c72b0;" x="339.819822" xlink:href="#m10da4c4cbc" y="237.621139"/>
     <use style="fill:#4c72b0;stroke:#4c72b0;" x="342.108271" xlink:href="#m10da4c4cbc" y="326.540123"/>
     <use style="fill:#4c72b0;stroke:#4c72b0;" x="344.396719" xlink:href="#m10da4c4cbc" y="325.058144"/>
     <use style="fill:#4c72b0;stroke:#4c72b0;" x="346.685167" xlink:href="#m10da4c4cbc" y="193.547226"/>
     <use style="fill:#4c72b0;stroke:#4c72b0;" x="348.973616" xlink:href="#m10da4c4cbc" y="243.847771"/>
     <use style="fill:#4c72b0;stroke:#4c72b0;" x="351.262064" xlink:href="#m10da4c4cbc" y="290.43549"/>
     <use style="fill:#4c72b0;stroke:#4c72b0;" x="353.550513" xlink:href="#m10da4c4cbc" y="276.176208"/>
     <use style="fill:#4c72b0;stroke:#4c72b0;" x="355.838961" xlink:href="#m10da4c4cbc" y="234.82881"/>
     <use style="fill:#4c72b0;stroke:#4c72b0;" x="358.127409" xlink:href="#m10da4c4cbc" y="130.045512"/>
     <use style="fill:#4c72b0;stroke:#4c72b0;" x="360.415858" xlink:href="#m10da4c4cbc" y="264.050366"/>
     <use style="fill:#4c72b0;stroke:#4c72b0;" x="362.704306" xlink:href="#m10da4c4cbc" y="265.693397"/>
     <use style="fill:#4c72b0;stroke:#4c72b0;" x="364.992755" xlink:href="#m10da4c4cbc" y="262.586946"/>
     <use style="fill:#4c72b0;stroke:#4c72b0;" x="367.281203" xlink:href="#m10da4c4cbc" y="257.571962"/>
     <use style="fill:#4c72b0;stroke:#4c72b0;" x="369.569651" xlink:href="#m10da4c4cbc" y="272.261061"/>
     <use style="fill:#4c72b0;stroke:#4c72b0;" x="371.8581" xlink:href="#m10da4c4cbc" y="267.578612"/>
     <use style="fill:#4c72b0;stroke:#4c72b0;" x="374.146548" xlink:href="#m10da4c4cbc" y="258.994597"/>
     <use style="fill:#4c72b0;stroke:#4c72b0;" x="376.434997" xlink:href="#m10da4c4cbc" y="301.292528"/>
     <use style="fill:#4c72b0;stroke:#4c72b0;" x="378.723445" xlink:href="#m10da4c4cbc" y="270.800603"/>
     <use style="fill:#4c72b0;stroke:#4c72b0;" x="381.011893" xlink:href="#m10da4c4cbc" y="322.069146"/>
     <use style="fill:#4c72b0;stroke:#4c72b0;" x="383.300342" xlink:href="#m10da4c4cbc" y="295.572254"/>
     <use style="fill:#4c72b0;stroke:#4c72b0;" x="385.58879" xlink:href="#m10da4c4cbc" y="328.822508"/>
     <use style="fill:#4c72b0;stroke:#4c72b0;" x="387.877239" xlink:href="#m10da4c4cbc" y="315.515799"/>
     <use style="fill:#4c72b0;stroke:#4c72b0;" x="390.165687" xlink:href="#m10da4c4cbc" y="294.961435"/>
     <use style="fill:#4c72b0;stroke:#4c72b0;" x="392.454135" xlink:href="#m10da4c4cbc" y="172.360191"/>
     <use style="fill:#4c72b0;stroke:#4c72b0;" x="394.742584" xlink:href="#m10da4c4cbc" y="246.83191"/>
     <use style="fill:#4c72b0;stroke:#4c72b0;" x="397.031032" xlink:href="#m10da4c4cbc" y="182.553912"/>
     <use style="fill:#4c72b0;stroke:#4c72b0;" x="399.319481" xlink:href="#m10da4c4cbc" y="263.14852"/>
     <use style="fill:#4c72b0;stroke:#4c72b0;" x="401.607929" xlink:href="#m10da4c4cbc" y="202.283392"/>
     <use style="fill:#4c72b0;stroke:#4c72b0;" x="403.896377" xlink:href="#m10da4c4cbc" y="213.805029"/>
     <use style="fill:#4c72b0;stroke:#4c72b0;" x="406.184826" xlink:href="#m10da4c4cbc" y="307.563232"/>
     <use style="fill:#4c72b0;stroke:#4c72b0;" x="408.473274" xlink:href="#m10da4c4cbc" y="293.353694"/>
     <use style="fill:#4c72b0;stroke:#4c72b0;" x="410.761722" xlink:href="#m10da4c4cbc" y="272.074873"/>
     <use style="fill:#4c72b0;stroke:#4c72b0;" x="413.050171" xlink:href="#m10da4c4cbc" y="266.085209"/>
     <use style="fill:#4c72b0;stroke:#4c72b0;" x="415.338619" xlink:href="#m10da4c4cbc" y="247.786415"/>
     <use style="fill:#4c72b0;stroke:#4c72b0;" x="417.627068" xlink:href="#m10da4c4cbc" y="264.024959"/>
     <use style="fill:#4c72b0;stroke:#4c72b0;" x="419.915516" xlink:href="#m10da4c4cbc" y="268.771712"/>
     <use style="fill:#4c72b0;stroke:#4c72b0;" x="422.203964" xlink:href="#m10da4c4cbc" y="297.329565"/>
     <use style="fill:#4c72b0;stroke:#4c72b0;" x="424.492413" xlink:href="#m10da4c4cbc" y="283.251528"/>
     <use style="fill:#4c72b0;stroke:#4c72b0;" x="426.780861" xlink:href="#m10da4c4cbc" y="283.524833"/>
     <use style="fill:#4c72b0;stroke:#4c72b0;" x="429.06931" xlink:href="#m10da4c4cbc" y="294.724347"/>
     <use style="fill:#4c72b0;stroke:#4c72b0;" x="431.357758" xlink:href="#m10da4c4cbc" y="323.026332"/>
     <use style="fill:#4c72b0;stroke:#4c72b0;" x="433.646206" xlink:href="#m10da4c4cbc" y="305.976925"/>
     <use style="fill:#4c72b0;stroke:#4c72b0;" x="435.934655" xlink:href="#m10da4c4cbc" y="287.533139"/>
     <use style="fill:#4c72b0;stroke:#4c72b0;" x="438.223103" xlink:href="#m10da4c4cbc" y="225.942406"/>
     <use style="fill:#4c72b0;stroke:#4c72b0;" x="440.511552" xlink:href="#m10da4c4cbc" y="243.876228"/>
     <use style="fill:#4c72b0;stroke:#4c72b0;" x="442.8" xlink:href="#m10da4c4cbc" y="248.316833"/>
     <use style="fill:#4c72b0;stroke:#4c72b0;" x="445.088448" xlink:href="#m10da4c4cbc" y="238.250175"/>
     <use style="fill:#4c72b0;stroke:#4c72b0;" x="447.376897" xlink:href="#m10da4c4cbc" y="312.790976"/>
     <use style="fill:#4c72b0;stroke:#4c72b0;" x="449.665345" xlink:href="#m10da4c4cbc" y="320.041614"/>
     <use style="fill:#4c72b0;stroke:#4c72b0;" x="451.953794" xlink:href="#m10da4c4cbc" y="191.534495"/>
     <use style="fill:#4c72b0;stroke:#4c72b0;" x="454.242242" xlink:href="#m10da4c4cbc" y="321.701426"/>
     <use style="fill:#4c72b0;stroke:#4c72b0;" x="456.53069" xlink:href="#m10da4c4cbc" y="303.087397"/>
     <use style="fill:#4c72b0;stroke:#4c72b0;" x="458.819139" xlink:href="#m10da4c4cbc" y="281.711985"/>
     <use style="fill:#4c72b0;stroke:#4c72b0;" x="461.107587" xlink:href="#m10da4c4cbc" y="280.407794"/>
     <use style="fill:#4c72b0;stroke:#4c72b0;" x="463.396036" xlink:href="#m10da4c4cbc" y="298.257265"/>
     <use style="fill:#4c72b0;stroke:#4c72b0;" x="465.684484" xlink:href="#m10da4c4cbc" y="309.67313"/>
     <use style="fill:#4c72b0;stroke:#4c72b0;" x="467.972932" xlink:href="#m10da4c4cbc" y="252.193417"/>
     <use style="fill:#4c72b0;stroke:#4c72b0;" x="470.261381" xlink:href="#m10da4c4cbc" y="299.294955"/>
     <use style="fill:#4c72b0;stroke:#4c72b0;" x="472.549829" xlink:href="#m10da4c4cbc" y="290.477215"/>
     <use style="fill:#4c72b0;stroke:#4c72b0;" x="474.838278" xlink:href="#m10da4c4cbc" y="370.051427"/>
     <use style="fill:#4c72b0;stroke:#4c72b0;" x="477.126726" xlink:href="#m10da4c4cbc" y="243.830741"/>
     <use style="fill:#4c72b0;stroke:#4c72b0;" x="479.415174" xlink:href="#m10da4c4cbc" y="299.554273"/>
     <use style="fill:#4c72b0;stroke:#4c72b0;" x="481.703623" xlink:href="#m10da4c4cbc" y="300.128015"/>
     <use style="fill:#4c72b0;stroke:#4c72b0;" x="483.992071" xlink:href="#m10da4c4cbc" y="314.612354"/>
     <use style="fill:#4c72b0;stroke:#4c72b0;" x="486.280519" xlink:href="#m10da4c4cbc" y="236.234654"/>
     <use style="fill:#4c72b0;stroke:#4c72b0;" x="488.568968" xlink:href="#m10da4c4cbc" y="224.617297"/>
     <use style="fill:#4c72b0;stroke:#4c72b0;" x="490.857416" xlink:href="#m10da4c4cbc" y="277.27383"/>
     <use style="fill:#4c72b0;stroke:#4c72b0;" x="493.145865" xlink:href="#m10da4c4cbc" y="286.051693"/>
     <use style="fill:#4c72b0;stroke:#4c72b0;" x="495.434313" xlink:href="#m10da4c4cbc" y="311.230628"/>
     <use style="fill:#4c72b0;stroke:#4c72b0;" x="497.722761" xlink:href="#m10da4c4cbc" y="296.172234"/>
     <use style="fill:#4c72b0;stroke:#4c72b0;" x="500.01121" xlink:href="#m10da4c4cbc" y="249.88054"/>
     <use style="fill:#4c72b0;stroke:#4c72b0;" x="502.299658" xlink:href="#m10da4c4cbc" y="236.550164"/>
     <use style="fill:#4c72b0;stroke:#4c72b0;" x="504.588107" xlink:href="#m10da4c4cbc" y="327.092221"/>
     <use style="fill:#4c72b0;stroke:#4c72b0;" x="506.876555" xlink:href="#m10da4c4cbc" y="298.246316"/>
     <use style="fill:#4c72b0;stroke:#4c72b0;" x="509.165003" xlink:href="#m10da4c4cbc" y="318.154987"/>
     <use style="fill:#4c72b0;stroke:#4c72b0;" x="511.453452" xlink:href="#m10da4c4cbc" y="268.123935"/>
     <use style="fill:#4c72b0;stroke:#4c72b0;" x="513.7419" xlink:href="#m10da4c4cbc" y="295.007793"/>
     <use style="fill:#4c72b0;stroke:#4c72b0;" x="516.030349" xlink:href="#m10da4c4cbc" y="284.096178"/>
     <use style="fill:#4c72b0;stroke:#4c72b0;" x="518.318797" xlink:href="#m10da4c4cbc" y="341.955788"/>
     <use style="fill:#4c72b0;stroke:#4c72b0;" x="520.607245" xlink:href="#m10da4c4cbc" y="297.213334"/>
     <use style="fill:#4c72b0;stroke:#4c72b0;" x="522.895694" xlink:href="#m10da4c4cbc" y="293.122824"/>
     <use style="fill:#4c72b0;stroke:#4c72b0;" x="525.184142" xlink:href="#m10da4c4cbc" y="234.818443"/>
     <use style="fill:#4c72b0;stroke:#4c72b0;" x="527.472591" xlink:href="#m10da4c4cbc" y="243.445907"/>
     <use style="fill:#4c72b0;stroke:#4c72b0;" x="529.761039" xlink:href="#m10da4c4cbc" y="281.709372"/>
     <use style="fill:#4c72b0;stroke:#4c72b0;" x="532.049487" xlink:href="#m10da4c4cbc" y="270.278996"/>
     <use style="fill:#4c72b0;stroke:#4c72b0;" x="534.337936" xlink:href="#m10da4c4cbc" y="168.399763"/>
     <use style="fill:#4c72b0;stroke:#4c72b0;" x="536.626384" xlink:href="#m10da4c4cbc" y="246.690224"/>
     <use style="fill:#4c72b0;stroke:#4c72b0;" x="538.914833" xlink:href="#m10da4c4cbc" y="254.005088"/>
     <use style="fill:#4c72b0;stroke:#4c72b0;" x="541.203281" xlink:href="#m10da4c4cbc" y="209.289508"/>
     <use style="fill:#4c72b0;stroke:#4c72b0;" x="543.491729" xlink:href="#m10da4c4cbc" y="249.567839"/>
     <use style="fill:#4c72b0;stroke:#4c72b0;" x="545.780178" xlink:href="#m10da4c4cbc" y="307.556118"/>
     <use style="fill:#4c72b0;stroke:#4c72b0;" x="548.068626" xlink:href="#m10da4c4cbc" y="424.914968"/>
     <use style="fill:#4c72b0;stroke:#4c72b0;" x="550.357075" xlink:href="#m10da4c4cbc" y="261.787505"/>
     <use style="fill:#4c72b0;stroke:#4c72b0;" x="552.645523" xlink:href="#m10da4c4cbc" y="283.850595"/>
     <use style="fill:#4c72b0;stroke:#4c72b0;" x="554.933971" xlink:href="#m10da4c4cbc" y="299.733618"/>
     <use style="fill:#4c72b0;stroke:#4c72b0;" x="557.22242" xlink:href="#m10da4c4cbc" y="218.334581"/>
     <use style="fill:#4c72b0;stroke:#4c72b0;" x="559.510868" xlink:href="#m10da4c4cbc" y="297.93601"/>
     <use style="fill:#4c72b0;stroke:#4c72b0;" x="561.799316" xlink:href="#m10da4c4cbc" y="349.102254"/>
     <use style="fill:#4c72b0;stroke:#4c72b0;" x="564.087765" xlink:href="#m10da4c4cbc" y="349.270438"/>
     <use style="fill:#4c72b0;stroke:#4c72b0;" x="566.376213" xlink:href="#m10da4c4cbc" y="311.017047"/>
     <use style="fill:#4c72b0;stroke:#4c72b0;" x="568.664662" xlink:href="#m10da4c4cbc" y="312.882361"/>
     <use style="fill:#4c72b0;stroke:#4c72b0;" x="570.95311" xlink:href="#m10da4c4cbc" y="309.025166"/>
     <use style="fill:#4c72b0;stroke:#4c72b0;" x="573.241558" xlink:href="#m10da4c4cbc" y="258.076178"/>
     <use style="fill:#4c72b0;stroke:#4c72b0;" x="575.530007" xlink:href="#m10da4c4cbc" y="256.346105"/>
     <use style="fill:#4c72b0;stroke:#4c72b0;" x="577.818455" xlink:href="#m10da4c4cbc" y="203.83715"/>
     <use style="fill:#4c72b0;stroke:#4c72b0;" x="580.106904" xlink:href="#m10da4c4cbc" y="307.712047"/>
     <use style="fill:#4c72b0;stroke:#4c72b0;" x="582.395352" xlink:href="#m10da4c4cbc" y="289.522088"/>
     <use style="fill:#4c72b0;stroke:#4c72b0;" x="584.6838" xlink:href="#m10da4c4cbc" y="259.849699"/>
     <use style="fill:#4c72b0;stroke:#4c72b0;" x="586.972249" xlink:href="#m10da4c4cbc" y="275.740915"/>
     <use style="fill:#4c72b0;stroke:#4c72b0;" x="589.260697" xlink:href="#m10da4c4cbc" y="306.300283"/>
     <use style="fill:#4c72b0;stroke:#4c72b0;" x="591.549146" xlink:href="#m10da4c4cbc" y="247.484676"/>
     <use style="fill:#4c72b0;stroke:#4c72b0;" x="593.837594" xlink:href="#m10da4c4cbc" y="279.215829"/>
     <use style="fill:#4c72b0;stroke:#4c72b0;" x="596.126042" xlink:href="#m10da4c4cbc" y="172.717221"/>
     <use style="fill:#4c72b0;stroke:#4c72b0;" x="598.414491" xlink:href="#m10da4c4cbc" y="257.303178"/>
     <use style="fill:#4c72b0;stroke:#4c72b0;" x="600.702939" xlink:href="#m10da4c4cbc" y="210.08571"/>
     <use style="fill:#4c72b0;stroke:#4c72b0;" x="602.991388" xlink:href="#m10da4c4cbc" y="262.809755"/>
     <use style="fill:#4c72b0;stroke:#4c72b0;" x="605.279836" xlink:href="#m10da4c4cbc" y="266.468521"/>
     <use style="fill:#4c72b0;stroke:#4c72b0;" x="607.568284" xlink:href="#m10da4c4cbc" y="262.182142"/>
     <use style="fill:#4c72b0;stroke:#4c72b0;" x="609.856733" xlink:href="#m10da4c4cbc" y="281.568028"/>
     <use style="fill:#4c72b0;stroke:#4c72b0;" x="612.145181" xlink:href="#m10da4c4cbc" y="250.071135"/>
     <use style="fill:#4c72b0;stroke:#4c72b0;" x="614.43363" xlink:href="#m10da4c4cbc" y="258.818679"/>
     <use style="fill:#4c72b0;stroke:#4c72b0;" x="616.722078" xlink:href="#m10da4c4cbc" y="334.531077"/>
     <use style="fill:#4c72b0;stroke:#4c72b0;" x="619.010526" xlink:href="#m10da4c4cbc" y="126.751463"/>
     <use style="fill:#4c72b0;stroke:#4c72b0;" x="621.298975" xlink:href="#m10da4c4cbc" y="319.354459"/>
     <use style="fill:#4c72b0;stroke:#4c72b0;" x="623.587423" xlink:href="#m10da4c4cbc" y="253.484157"/>
     <use style="fill:#4c72b0;stroke:#4c72b0;" x="625.875871" xlink:href="#m10da4c4cbc" y="327.137082"/>
     <use style="fill:#4c72b0;stroke:#4c72b0;" x="628.16432" xlink:href="#m10da4c4cbc" y="243.23629"/>
     <use style="fill:#4c72b0;stroke:#4c72b0;" x="630.452768" xlink:href="#m10da4c4cbc" y="264.194337"/>
     <use style="fill:#4c72b0;stroke:#4c72b0;" x="632.741217" xlink:href="#m10da4c4cbc" y="272.440785"/>
     <use style="fill:#4c72b0;stroke:#4c72b0;" x="635.029665" xlink:href="#m10da4c4cbc" y="340.508967"/>
     <use style="fill:#4c72b0;stroke:#4c72b0;" x="637.318113" xlink:href="#m10da4c4cbc" y="331.446127"/>
     <use style="fill:#4c72b0;stroke:#4c72b0;" x="639.606562" xlink:href="#m10da4c4cbc" y="268.65869"/>
     <use style="fill:#4c72b0;stroke:#4c72b0;" x="641.89501" xlink:href="#m10da4c4cbc" y="320.238376"/>
     <use style="fill:#4c72b0;stroke:#4c72b0;" x="644.183459" xlink:href="#m10da4c4cbc" y="228.109932"/>
     <use style="fill:#4c72b0;stroke:#4c72b0;" x="646.471907" xlink:href="#m10da4c4cbc" y="262.378897"/>
     <use style="fill:#4c72b0;stroke:#4c72b0;" x="648.760355" xlink:href="#m10da4c4cbc" y="216.694015"/>
     <use style="fill:#4c72b0;stroke:#4c72b0;" x="651.048804" xlink:href="#m10da4c4cbc" y="193.289314"/>
     <use style="fill:#4c72b0;stroke:#4c72b0;" x="653.337252" xlink:href="#m10da4c4cbc" y="248.174122"/>
     <use style="fill:#4c72b0;stroke:#4c72b0;" x="655.625701" xlink:href="#m10da4c4cbc" y="276.872201"/>
     <use style="fill:#4c72b0;stroke:#4c72b0;" x="657.914149" xlink:href="#m10da4c4cbc" y="161.378724"/>
     <use style="fill:#4c72b0;stroke:#4c72b0;" x="660.202597" xlink:href="#m10da4c4cbc" y="169.182973"/>
     <use style="fill:#4c72b0;stroke:#4c72b0;" x="662.491046" xlink:href="#m10da4c4cbc" y="321.576907"/>
     <use style="fill:#4c72b0;stroke:#4c72b0;" x="664.779494" xlink:href="#m10da4c4cbc" y="262.932308"/>
     <use style="fill:#4c72b0;stroke:#4c72b0;" x="667.067943" xlink:href="#m10da4c4cbc" y="214.669309"/>
     <use style="fill:#4c72b0;stroke:#4c72b0;" x="669.356391" xlink:href="#m10da4c4cbc" y="327.987525"/>
     <use style="fill:#4c72b0;stroke:#4c72b0;" x="671.644839" xlink:href="#m10da4c4cbc" y="312.814827"/>
     <use style="fill:#4c72b0;stroke:#4c72b0;" x="673.933288" xlink:href="#m10da4c4cbc" y="177.201618"/>
     <use style="fill:#4c72b0;stroke:#4c72b0;" x="676.221736" xlink:href="#m10da4c4cbc" y="291.529212"/>
     <use style="fill:#4c72b0;stroke:#4c72b0;" x="678.510185" xlink:href="#m10da4c4cbc" y="218.717235"/>
     <use style="fill:#4c72b0;stroke:#4c72b0;" x="680.798633" xlink:href="#m10da4c4cbc" y="230.535679"/>
     <use style="fill:#4c72b0;stroke:#4c72b0;" x="683.087081" xlink:href="#m10da4c4cbc" y="195.976554"/>
     <use style="fill:#4c72b0;stroke:#4c72b0;" x="685.37553" xlink:href="#m10da4c4cbc" y="243.960619"/>
     <use style="fill:#4c72b0;stroke:#4c72b0;" x="687.663978" xlink:href="#m10da4c4cbc" y="128.381137"/>
     <use style="fill:#4c72b0;stroke:#4c72b0;" x="689.952427" xlink:href="#m10da4c4cbc" y="328.502285"/>
     <use style="fill:#4c72b0;stroke:#4c72b0;" x="692.240875" xlink:href="#m10da4c4cbc" y="218.275109"/>
     <use style="fill:#4c72b0;stroke:#4c72b0;" x="694.529323" xlink:href="#m10da4c4cbc" y="214.457823"/>
     <use style="fill:#4c72b0;stroke:#4c72b0;" x="696.817772" xlink:href="#m10da4c4cbc" y="290.17624"/>
     <use style="fill:#4c72b0;stroke:#4c72b0;" x="699.10622" xlink:href="#m10da4c4cbc" y="352.924341"/>
     <use style="fill:#4c72b0;stroke:#4c72b0;" x="701.394668" xlink:href="#m10da4c4cbc" y="158.786026"/>
     <use style="fill:#4c72b0;stroke:#4c72b0;" x="703.683117" xlink:href="#m10da4c4cbc" y="291.104509"/>
     <use style="fill:#4c72b0;stroke:#4c72b0;" x="705.971565" xlink:href="#m10da4c4cbc" y="147.350203"/>
     <use style="fill:#4c72b0;stroke:#4c72b0;" x="708.260014" xlink:href="#m10da4c4cbc" y="224.786772"/>
     <use style="fill:#4c72b0;stroke:#4c72b0;" x="710.548462" xlink:href="#m10da4c4cbc" y="294.870711"/>
     <use style="fill:#4c72b0;stroke:#4c72b0;" x="712.83691" xlink:href="#m10da4c4cbc" y="348.832855"/>
     <use style="fill:#4c72b0;stroke:#4c72b0;" x="715.125359" xlink:href="#m10da4c4cbc" y="346.652882"/>
     <use style="fill:#4c72b0;stroke:#4c72b0;" x="717.413807" xlink:href="#m10da4c4cbc" y="276.08279"/>
     <use style="fill:#4c72b0;stroke:#4c72b0;" x="719.702256" xlink:href="#m10da4c4cbc" y="269.482748"/>
     <use style="fill:#4c72b0;stroke:#4c72b0;" x="721.990704" xlink:href="#m10da4c4cbc" y="339.824547"/>
     <use style="fill:#4c72b0;stroke:#4c72b0;" x="724.279152" xlink:href="#m10da4c4cbc" y="249.982478"/>
     <use style="fill:#4c72b0;stroke:#4c72b0;" x="726.567601" xlink:href="#m10da4c4cbc" y="303.885796"/>
     <use style="fill:#4c72b0;stroke:#4c72b0;" x="728.856049" xlink:href="#m10da4c4cbc" y="294.022931"/>
     <use style="fill:#4c72b0;stroke:#4c72b0;" x="731.144498" xlink:href="#m10da4c4cbc" y="291.644392"/>
     <use style="fill:#4c72b0;stroke:#4c72b0;" x="733.432946" xlink:href="#m10da4c4cbc" y="353.832775"/>
     <use style="fill:#4c72b0;stroke:#4c72b0;" x="735.721394" xlink:href="#m10da4c4cbc" y="312.241786"/>
     <use style="fill:#4c72b0;stroke:#4c72b0;" x="738.009843" xlink:href="#m10da4c4cbc" y="368.660744"/>
     <use style="fill:#4c72b0;stroke:#4c72b0;" x="740.298291" xlink:href="#m10da4c4cbc" y="375.879107"/>
     <use style="fill:#4c72b0;stroke:#4c72b0;" x="742.58674" xlink:href="#m10da4c4cbc" y="126.238534"/>
     <use style="fill:#4c72b0;stroke:#4c72b0;" x="744.875188" xlink:href="#m10da4c4cbc" y="334.926028"/>
     <use style="fill:#4c72b0;stroke:#4c72b0;" x="747.163636" xlink:href="#m10da4c4cbc" y="314.071233"/>
    </g>
   </g>
   <g id="patch_3">
    <path d="M 108 504 
L 108 69.12 
" style="fill:none;stroke:#ffffff;stroke-linecap:square;stroke-linejoin:miter;stroke-width:1.25;"/>
   </g>
   <g id="patch_4">
    <path d="M 777.6 504 
L 777.6 69.12 
" style="fill:none;stroke:#ffffff;stroke-linecap:square;stroke-linejoin:miter;stroke-width:1.25;"/>
   </g>
   <g id="patch_5">
    <path d="M 108 504 
L 777.6 504 
" style="fill:none;stroke:#ffffff;stroke-linecap:square;stroke-linejoin:miter;stroke-width:1.25;"/>
   </g>
   <g id="patch_6">
    <path d="M 108 69.12 
L 777.6 69.12 
" style="fill:none;stroke:#ffffff;stroke-linecap:square;stroke-linejoin:miter;stroke-width:1.25;"/>
   </g>
  </g>
 </g>
 <defs>
  <clipPath id="p8b48c447c2">
   <rect height="434.88" width="669.6" x="108" y="69.12"/>
  </clipPath>
 </defs>
</svg>
